<svg xmlns="http://www.w3.org/2000/svg" xmlns:xlink="http://www.w3.org/1999/xlink" contentScriptType="application/ecmascript" contentStyleType="text/css" height="661px" preserveAspectRatio="none" style="width:995px;height:661px;" version="1.1" viewBox="0 0 995 661" width="995px" zoomAndPan="magnify"><defs><filter height="300%" id="f1mt5o9235qt8s" width="300%" x="-1" y="-1"><feGaussianBlur result="blurOut" stdDeviation="2.0"/><feColorMatrix in="blurOut" result="blurOut2" type="matrix" values="0 0 0 0 0 0 0 0 0 0 0 0 0 0 0 0 0 0 .4 0"/><feOffset dx="4.0" dy="4.0" in="blurOut2" result="blurOut3"/><feBlend in="SourceGraphic" in2="blurOut3" mode="normal"/></filter></defs><g><!--MD5=[7e107ce4295cb601108fd52f25ff5dac]
class AbstractCryptoExchangeClientModule--><rect codeLine="1" fill="#FEFECE" filter="url(#f1mt5o9235qt8s)" height="99.2188" id="AbstractCryptoExchangeClientModule" style="stroke:#A80036;stroke-width:1.5;" width="328" x="335.5" y="7"/><ellipse cx="381.25" cy="23" fill="#A9DCDF" rx="11" ry="11" style="stroke:#A80036;stroke-width:1.0;"/><path d="M383.3281,24.8125 L383.7188,25.7969 L383.3281,25.7969 C382.875,25.7969 382.7656,25.8125 382.6094,25.9219 C382.3594,26.0781 382.2031,26.3594 382.2031,26.6563 C382.2031,26.9219 382.3438,27.1719 382.5625,27.3281 C382.7031,27.4531 382.9063,27.5 383.3281,27.5 L385.6875,27.5 C386.0469,27.5 386.2656,27.4688 386.4063,27.375 C386.6563,27.2344 386.8125,26.9375 386.8125,26.6563 C386.8125,26.375 386.6719,26.125 386.4531,25.9688 C386.2813,25.8281 386.125,25.7969 385.6563,25.7969 L382.2656,17.5938 L378.5938,17.5938 C378.1406,17.5938 378.0156,17.6094 377.8594,17.7031 C377.6094,17.875 377.4531,18.1563 377.4531,18.4375 C377.4531,18.7188 377.5938,18.9688 377.8125,19.1406 C377.9844,19.25 378.1563,19.2813 378.5938,19.2813 L379.6719,19.2813 L377.0313,25.7969 C376.6094,25.7969 376.4531,25.8125 376.2969,25.9219 C376.0469,26.0781 375.8906,26.3594 375.8906,26.6563 C375.8906,27.2188 376.2656,27.5 377.0156,27.5 L379.2813,27.5 C379.6406,27.5 379.8594,27.4688 379.9844,27.375 C380.25,27.2344 380.3906,26.9375 380.3906,26.6563 C380.3906,26.375 380.2656,26.125 380.0469,25.9531 C379.875,25.8281 379.7344,25.7969 379.2813,25.7969 L378.8906,25.7969 L379.2813,24.8125 L383.3281,24.8125 Z M382.625,23.1094 L379.9531,23.1094 L381.2969,19.8438 L382.625,23.1094 Z " fill="#000000"/><text fill="#000000" font-family="sans-serif" font-size="12" font-style="italic" lengthAdjust="spacing" textLength="228" x="401.75" y="27.1543">AbstractCryptoExchangeClientModule</text><line style="stroke:#A80036;stroke-width:1.5;" x1="336.5" x2="662.5" y1="39" y2="39"/><line style="stroke:#A80036;stroke-width:1.5;" x1="336.5" x2="662.5" y1="47" y2="47"/><text fill="#000000" font-family="sans-serif" font-size="11" font-style="italic" lengthAdjust="spacing" textLength="113" x="341.5" y="61.2104">is_enabled() -&gt; bool</text><text fill="#000000" font-family="sans-serif" font-size="11" font-style="italic" lengthAdjust="spacing" textLength="161" x="341.5" y="74.0151">get_exchange_name() -&gt; str</text><text fill="#000000" font-family="sans-serif" font-size="11" font-style="italic" lengthAdjust="spacing" textLength="316" x="341.5" y="86.8198">get_exchange_client() -&gt; AbstractCryptoExchangeClient</text><text fill="#000000" font-family="sans-serif" font-size="11" lengthAdjust="spacing" text-decoration="underline" textLength="315" x="341.5" y="99.6245">get_instance() -&gt; AbstractCryptoExchangeClientModule</text><!--MD5=[ae1c4da9421319b082ef1c2e47167b39]
class AbstractCryptoExchangeClient--><rect codeLine="8" fill="#FEFECE" filter="url(#f1mt5o9235qt8s)" height="112.0234" id="AbstractCryptoExchangeClient" style="stroke:#A80036;stroke-width:1.5;" width="631" x="46" y="166"/><ellipse cx="264.75" cy="182" fill="#A9DCDF" rx="11" ry="11" style="stroke:#A80036;stroke-width:1.0;"/><path d="M266.8281,183.8125 L267.2188,184.7969 L266.8281,184.7969 C266.375,184.7969 266.2656,184.8125 266.1094,184.9219 C265.8594,185.0781 265.7031,185.3594 265.7031,185.6563 C265.7031,185.9219 265.8438,186.1719 266.0625,186.3281 C266.2031,186.4531 266.4063,186.5 266.8281,186.5 L269.1875,186.5 C269.5469,186.5 269.7656,186.4688 269.9063,186.375 C270.1563,186.2344 270.3125,185.9375 270.3125,185.6563 C270.3125,185.375 270.1719,185.125 269.9531,184.9688 C269.7813,184.8281 269.625,184.7969 269.1563,184.7969 L265.7656,176.5938 L262.0938,176.5938 C261.6406,176.5938 261.5156,176.6094 261.3594,176.7031 C261.1094,176.875 260.9531,177.1563 260.9531,177.4375 C260.9531,177.7188 261.0938,177.9688 261.3125,178.1406 C261.4844,178.25 261.6563,178.2813 262.0938,178.2813 L263.1719,178.2813 L260.5313,184.7969 C260.1094,184.7969 259.9531,184.8125 259.7969,184.9219 C259.5469,185.0781 259.3906,185.3594 259.3906,185.6563 C259.3906,186.2188 259.7656,186.5 260.5156,186.5 L262.7813,186.5 C263.1406,186.5 263.3594,186.4688 263.4844,186.375 C263.75,186.2344 263.8906,185.9375 263.8906,185.6563 C263.8906,185.375 263.7656,185.125 263.5469,184.9531 C263.375,184.8281 263.2344,184.7969 262.7813,184.7969 L262.3906,184.7969 L262.7813,183.8125 L266.8281,183.8125 Z M266.125,182.1094 L263.4531,182.1094 L264.7969,178.8438 L266.125,182.1094 Z " fill="#000000"/><text fill="#000000" font-family="sans-serif" font-size="12" font-style="italic" lengthAdjust="spacing" textLength="185" x="285.25" y="186.1543">AbstractCryptoExchangeClient</text><line style="stroke:#A80036;stroke-width:1.5;" x1="47" x2="676" y1="198" y2="198"/><line style="stroke:#A80036;stroke-width:1.5;" x1="47" x2="676" y1="206" y2="206"/><text fill="#000000" font-family="sans-serif" font-size="11" font-style="italic" lengthAdjust="spacing" textLength="421" x="52" y="220.2104">get_trading_pairs(list_of_symbols_and_codes: List[str]) -&gt; List[TradingPair]</text><text fill="#000000" font-family="sans-serif" font-size="11" font-style="italic" lengthAdjust="spacing" textLength="618" x="52" y="233.0151">get_trades(from_timestamp: int, to_timestamp: int, list_of_trading_pairs: List[TradingPair]) -&gt; List[TradeData]</text><text fill="#000000" font-family="sans-serif" font-size="11" font-style="italic" lengthAdjust="spacing" textLength="602" x="52" y="245.8198">get_savings_interests(from_timestamp: int, to_timestamp: int, list_of_assets: List[str]) -&gt; List[InterestData]</text><text fill="#000000" font-family="sans-serif" font-size="11" font-style="italic" lengthAdjust="spacing" textLength="619" x="52" y="258.6245">get_withdrawals(self, from_timestamp: int, to_timestamp: int, list_of_assets: List[str]) -&gt; List[WithdrawalData]</text><text fill="#000000" font-family="sans-serif" font-size="11" font-style="italic" lengthAdjust="spacing" textLength="578" x="52" y="271.4292">get_deposits(self, from_timestamp: int, to_timestamp: int, list_of_assets: List[str]) -&gt; List[DepositData]</text><!--MD5=[dd48d4a7917ccbfcbaada9fd9b999f55]
class ExchangeXYClientModule--><rect codeLine="16" fill="#FEFECE" filter="url(#f1mt5o9235qt8s)" height="48" id="ExchangeXYClientModule" style="stroke:#A80036;stroke-width:1.5;" width="182" x="712.5" y="198"/><ellipse cx="727.5" cy="214" fill="#ADD1B2" rx="11" ry="11" style="stroke:#A80036;stroke-width:1.0;"/><path d="M729.8438,209.6719 C728.9063,209.2344 728.3125,209.0938 727.4375,209.0938 C724.8125,209.0938 722.8125,211.1719 722.8125,213.8906 L722.8125,215.0156 C722.8125,217.5938 724.9219,219.4844 727.8125,219.4844 C729.0313,219.4844 730.1875,219.1875 730.9375,218.6406 C731.5156,218.2344 731.8438,217.7813 731.8438,217.3906 C731.8438,216.9375 731.4531,216.5469 730.9844,216.5469 C730.7656,216.5469 730.5625,216.625 730.375,216.8125 C729.9219,217.2969 729.9219,217.2969 729.7344,217.3906 C729.3125,217.6563 728.625,217.7813 727.8594,217.7813 C725.8125,217.7813 724.5156,216.6875 724.5156,214.9844 L724.5156,213.8906 C724.5156,212.1094 725.7656,210.7969 727.5,210.7969 C728.0781,210.7969 728.6875,210.9531 729.1563,211.2031 C729.6406,211.4844 729.8125,211.7031 729.9063,212.1094 C729.9688,212.5156 730,212.6406 730.1406,212.7656 C730.2813,212.9063 730.5156,213.0156 730.7344,213.0156 C731,213.0156 731.2656,212.875 731.4375,212.6563 C731.5469,212.5 731.5781,212.3125 731.5781,211.8906 L731.5781,210.4688 C731.5781,210.0313 731.5625,209.9063 731.4688,209.75 C731.3125,209.4844 731.0313,209.3438 730.7344,209.3438 C730.4375,209.3438 730.2344,209.4375 730.0156,209.75 L729.8438,209.6719 Z " fill="#000000"/><text fill="#000000" font-family="sans-serif" font-size="12" lengthAdjust="spacing" textLength="150" x="741.5" y="218.1543">ExchangeXYClientModule</text><line style="stroke:#A80036;stroke-width:1.5;" x1="713.5" x2="893.5" y1="230" y2="230"/><line style="stroke:#A80036;stroke-width:1.5;" x1="713.5" x2="893.5" y1="238" y2="238"/><!--MD5=[deb2401ef1e962bc3a9f87f0a7395f85]
class ExchangeXYClient--><rect codeLine="19" fill="#FEFECE" filter="url(#f1mt5o9235qt8s)" height="48" id="ExchangeXYClient" style="stroke:#A80036;stroke-width:1.5;" width="138" x="839.5" y="395.5"/><ellipse cx="854.5" cy="411.5" fill="#ADD1B2" rx="11" ry="11" style="stroke:#A80036;stroke-width:1.0;"/><path d="M856.8438,407.1719 C855.9063,406.7344 855.3125,406.5938 854.4375,406.5938 C851.8125,406.5938 849.8125,408.6719 849.8125,411.3906 L849.8125,412.5156 C849.8125,415.0938 851.9219,416.9844 854.8125,416.9844 C856.0313,416.9844 857.1875,416.6875 857.9375,416.1406 C858.5156,415.7344 858.8438,415.2813 858.8438,414.8906 C858.8438,414.4375 858.4531,414.0469 857.9844,414.0469 C857.7656,414.0469 857.5625,414.125 857.375,414.3125 C856.9219,414.7969 856.9219,414.7969 856.7344,414.8906 C856.3125,415.1563 855.625,415.2813 854.8594,415.2813 C852.8125,415.2813 851.5156,414.1875 851.5156,412.4844 L851.5156,411.3906 C851.5156,409.6094 852.7656,408.2969 854.5,408.2969 C855.0781,408.2969 855.6875,408.4531 856.1563,408.7031 C856.6406,408.9844 856.8125,409.2031 856.9063,409.6094 C856.9688,410.0156 857,410.1406 857.1406,410.2656 C857.2813,410.4063 857.5156,410.5156 857.7344,410.5156 C858,410.5156 858.2656,410.375 858.4375,410.1563 C858.5469,410 858.5781,409.8125 858.5781,409.3906 L858.5781,407.9688 C858.5781,407.5313 858.5625,407.4063 858.4688,407.25 C858.3125,406.9844 858.0313,406.8438 857.7344,406.8438 C857.4375,406.8438 857.2344,406.9375 857.0156,407.25 L856.8438,407.1719 Z " fill="#000000"/><text fill="#000000" font-family="sans-serif" font-size="12" lengthAdjust="spacing" textLength="106" x="868.5" y="415.6543">ExchangeXYClient</text><line style="stroke:#A80036;stroke-width:1.5;" x1="840.5" x2="976.5" y1="427.5" y2="427.5"/><line style="stroke:#A80036;stroke-width:1.5;" x1="840.5" x2="976.5" y1="435.5" y2="435.5"/><!--MD5=[251d7dd5f3b5254487f905b379cbc88d]
class TradeData--><rect codeLine="26" fill="#FEFECE" filter="url(#f1mt5o9235qt8s)" height="163.2422" id="TradeData" style="stroke:#A80036;stroke-width:1.5;" width="149" x="30" y="338"/><ellipse cx="69.75" cy="354" fill="#ADD1B2" rx="11" ry="11" style="stroke:#A80036;stroke-width:1.0;"/><path d="M72.0938,349.6719 C71.1563,349.2344 70.5625,349.0938 69.6875,349.0938 C67.0625,349.0938 65.0625,351.1719 65.0625,353.8906 L65.0625,355.0156 C65.0625,357.5938 67.1719,359.4844 70.0625,359.4844 C71.2813,359.4844 72.4375,359.1875 73.1875,358.6406 C73.7656,358.2344 74.0938,357.7813 74.0938,357.3906 C74.0938,356.9375 73.7031,356.5469 73.2344,356.5469 C73.0156,356.5469 72.8125,356.625 72.625,356.8125 C72.1719,357.2969 72.1719,357.2969 71.9844,357.3906 C71.5625,357.6563 70.875,357.7813 70.1094,357.7813 C68.0625,357.7813 66.7656,356.6875 66.7656,354.9844 L66.7656,353.8906 C66.7656,352.1094 68.0156,350.7969 69.75,350.7969 C70.3281,350.7969 70.9375,350.9531 71.4063,351.2031 C71.8906,351.4844 72.0625,351.7031 72.1563,352.1094 C72.2188,352.5156 72.25,352.6406 72.3906,352.7656 C72.5313,352.9063 72.7656,353.0156 72.9844,353.0156 C73.25,353.0156 73.5156,352.875 73.6875,352.6563 C73.7969,352.5 73.8281,352.3125 73.8281,351.8906 L73.8281,350.4688 C73.8281,350.0313 73.8125,349.9063 73.7188,349.75 C73.5625,349.4844 73.2813,349.3438 72.9844,349.3438 C72.6875,349.3438 72.4844,349.4375 72.2656,349.75 L72.0938,349.6719 Z " fill="#000000"/><text fill="#000000" font-family="sans-serif" font-size="12" lengthAdjust="spacing" textLength="62" x="89.25" y="358.1543">TradeData</text><line style="stroke:#A80036;stroke-width:1.5;" x1="31" x2="178" y1="370" y2="370"/><text fill="#000000" font-family="sans-serif" font-size="11" lengthAdjust="spacing" textLength="113" x="36" y="384.2104">trading_platform: str</text><text fill="#000000" font-family="sans-serif" font-size="11" lengthAdjust="spacing" textLength="137" x="36" y="397.0151">commission_amount: str</text><text fill="#000000" font-family="sans-serif" font-size="11" lengthAdjust="spacing" textLength="125" x="36" y="409.8198">commission_asset: str</text><text fill="#000000" font-family="sans-serif" font-size="11" lengthAdjust="spacing" textLength="119" x="36" y="422.6245">currency_amount: str</text><text fill="#000000" font-family="sans-serif" font-size="11" lengthAdjust="spacing" textLength="115" x="36" y="435.4292">security_amount: str</text><text fill="#000000" font-family="sans-serif" font-size="11" lengthAdjust="spacing" textLength="135" x="36" y="448.2339">trading_pair: TradingPair</text><text fill="#000000" font-family="sans-serif" font-size="11" lengthAdjust="spacing" textLength="127" x="36" y="461.0386">type: TransactionType</text><text fill="#000000" font-family="sans-serif" font-size="11" lengthAdjust="spacing" textLength="31" x="36" y="473.8433">id: int</text><text fill="#000000" font-family="sans-serif" font-size="11" lengthAdjust="spacing" textLength="47" x="36" y="486.6479">time: int</text><line style="stroke:#A80036;stroke-width:1.5;" x1="31" x2="178" y1="493.2422" y2="493.2422"/><!--MD5=[da8fc32a5d12e5c2427eac7a411ce93d]
class TradingPair--><rect codeLine="38" fill="#FEFECE" filter="url(#f1mt5o9235qt8s)" height="86.4141" id="TradingPair" style="stroke:#A80036;stroke-width:1.5;" width="98" x="173.5" y="561"/><ellipse cx="188.5" cy="577" fill="#ADD1B2" rx="11" ry="11" style="stroke:#A80036;stroke-width:1.0;"/><path d="M190.8438,572.6719 C189.9063,572.2344 189.3125,572.0938 188.4375,572.0938 C185.8125,572.0938 183.8125,574.1719 183.8125,576.8906 L183.8125,578.0156 C183.8125,580.5938 185.9219,582.4844 188.8125,582.4844 C190.0313,582.4844 191.1875,582.1875 191.9375,581.6406 C192.5156,581.2344 192.8438,580.7813 192.8438,580.3906 C192.8438,579.9375 192.4531,579.5469 191.9844,579.5469 C191.7656,579.5469 191.5625,579.625 191.375,579.8125 C190.9219,580.2969 190.9219,580.2969 190.7344,580.3906 C190.3125,580.6563 189.625,580.7813 188.8594,580.7813 C186.8125,580.7813 185.5156,579.6875 185.5156,577.9844 L185.5156,576.8906 C185.5156,575.1094 186.7656,573.7969 188.5,573.7969 C189.0781,573.7969 189.6875,573.9531 190.1563,574.2031 C190.6406,574.4844 190.8125,574.7031 190.9063,575.1094 C190.9688,575.5156 191,575.6406 191.1406,575.7656 C191.2813,575.9063 191.5156,576.0156 191.7344,576.0156 C192,576.0156 192.2656,575.875 192.4375,575.6563 C192.5469,575.5 192.5781,575.3125 192.5781,574.8906 L192.5781,573.4688 C192.5781,573.0313 192.5625,572.9063 192.4688,572.75 C192.3125,572.4844 192.0313,572.3438 191.7344,572.3438 C191.4375,572.3438 191.2344,572.4375 191.0156,572.75 L190.8438,572.6719 Z " fill="#000000"/><text fill="#000000" font-family="sans-serif" font-size="12" lengthAdjust="spacing" textLength="66" x="202.5" y="581.1543">TradingPair</text><line style="stroke:#A80036;stroke-width:1.5;" x1="174.5" x2="270.5" y1="593" y2="593"/><text fill="#000000" font-family="sans-serif" font-size="11" lengthAdjust="spacing" textLength="66" x="179.5" y="607.2104">security: str</text><text fill="#000000" font-family="sans-serif" font-size="11" lengthAdjust="spacing" textLength="70" x="179.5" y="620.0151">currency: str</text><text fill="#000000" font-family="sans-serif" font-size="11" lengthAdjust="spacing" textLength="42" x="179.5" y="632.8198">pair: str</text><line style="stroke:#A80036;stroke-width:1.5;" x1="174.5" x2="270.5" y1="639.4141" y2="639.4141"/><!--MD5=[44af1887837e86aa2526a2bdc4cb389a]
class TransactionType--><rect codeLine="44" fill="#FEFECE" filter="url(#f1mt5o9235qt8s)" height="73.6094" id="TransactionType" style="stroke:#A80036;stroke-width:1.5;" width="131" x="7" y="567"/><ellipse cx="22" cy="583" fill="#EB937F" rx="11" ry="11" style="stroke:#A80036;stroke-width:1.0;"/><path d="M20.7969,583.875 L22.25,583.875 L22.25,583.9844 C22.25,584.3906 22.2813,584.5469 22.3594,584.7031 C22.5156,584.9531 22.7969,585.1094 23.0938,585.1094 C23.3438,585.1094 23.6094,584.9688 23.7656,584.75 C23.8906,584.5938 23.9219,584.4375 23.9219,583.9844 L23.9219,582.0625 C23.9219,581.9063 23.9219,581.8594 23.9063,581.7031 C23.8438,581.2344 23.5313,580.9219 23.0781,580.9219 C22.8281,580.9219 22.5625,581.0625 22.3906,581.2813 C22.2813,581.4531 22.25,581.6094 22.25,582.0625 L22.25,582.1875 L20.7969,582.1875 L20.7969,579.7813 L24.7813,579.7813 L24.7813,580.6406 C24.7813,581.0469 24.8125,581.2188 24.8906,581.375 C25.0625,581.625 25.3438,581.7813 25.625,581.7813 C25.8906,581.7813 26.1563,581.6406 26.3281,581.4219 C26.4375,581.25 26.4688,581.1094 26.4688,580.6406 L26.4688,578.0938 L18.8438,578.0938 C18.4063,578.0938 18.2813,578.1094 18.125,578.2031 C17.875,578.3594 17.7188,578.6563 17.7188,578.9375 C17.7188,579.2188 17.8594,579.4688 18.0781,579.6406 C18.2344,579.75 18.4219,579.7813 18.8438,579.7813 L19.0938,579.7813 L19.0938,586.2969 L18.8438,586.2969 C18.4375,586.2969 18.2813,586.3125 18.125,586.4219 C17.875,586.5938 17.7188,586.8594 17.7188,587.1563 C17.7188,587.4219 17.8594,587.6719 18.0781,587.8281 C18.2188,587.9531 18.4531,588 18.8438,588 L26.8438,588 L26.8438,585.4219 C26.8438,584.9844 26.8125,584.8438 26.7344,584.6875 C26.5625,584.4375 26.2813,584.2813 26,584.2813 C25.7344,584.2813 25.4688,584.3906 25.2969,584.6406 C25.1875,584.7969 25.1563,584.9375 25.1563,585.4219 L25.1563,586.2969 L20.7969,586.2969 L20.7969,583.875 Z " fill="#000000"/><text fill="#000000" font-family="sans-serif" font-size="12" lengthAdjust="spacing" textLength="99" x="36" y="587.1543">TransactionType</text><line style="stroke:#A80036;stroke-width:1.5;" x1="8" x2="137" y1="599" y2="599"/><text fill="#000000" font-family="sans-serif" font-size="11" lengthAdjust="spacing" textLength="23" x="13" y="613.2104">BUY</text><text fill="#000000" font-family="sans-serif" font-size="11" lengthAdjust="spacing" textLength="27" x="13" y="626.0151">SELL</text><line style="stroke:#A80036;stroke-width:1.5;" x1="8" x2="137" y1="632.6094" y2="632.6094"/><!--MD5=[4aacfc869f18b51607c6dca0928cb216]
class InterestData--><rect codeLine="52" fill="#FEFECE" filter="url(#f1mt5o9235qt8s)" height="112.0234" id="InterestData" style="stroke:#A80036;stroke-width:1.5;" width="151" x="286" y="363.5"/><ellipse cx="321.7" cy="379.5" fill="#ADD1B2" rx="11" ry="11" style="stroke:#A80036;stroke-width:1.0;"/><path d="M324.0438,375.1719 C323.1063,374.7344 322.5125,374.5938 321.6375,374.5938 C319.0125,374.5938 317.0125,376.6719 317.0125,379.3906 L317.0125,380.5156 C317.0125,383.0938 319.1219,384.9844 322.0125,384.9844 C323.2313,384.9844 324.3875,384.6875 325.1375,384.1406 C325.7156,383.7344 326.0438,383.2813 326.0438,382.8906 C326.0438,382.4375 325.6531,382.0469 325.1844,382.0469 C324.9656,382.0469 324.7625,382.125 324.575,382.3125 C324.1219,382.7969 324.1219,382.7969 323.9344,382.8906 C323.5125,383.1563 322.825,383.2813 322.0594,383.2813 C320.0125,383.2813 318.7156,382.1875 318.7156,380.4844 L318.7156,379.3906 C318.7156,377.6094 319.9656,376.2969 321.7,376.2969 C322.2781,376.2969 322.8875,376.4531 323.3563,376.7031 C323.8406,376.9844 324.0125,377.2031 324.1063,377.6094 C324.1688,378.0156 324.2,378.1406 324.3406,378.2656 C324.4813,378.4063 324.7156,378.5156 324.9344,378.5156 C325.2,378.5156 325.4656,378.375 325.6375,378.1563 C325.7469,378 325.7781,377.8125 325.7781,377.3906 L325.7781,375.9688 C325.7781,375.5313 325.7625,375.4063 325.6688,375.25 C325.5125,374.9844 325.2313,374.8438 324.9344,374.8438 C324.6375,374.8438 324.4344,374.9375 324.2156,375.25 L324.0438,375.1719 Z " fill="#000000"/><text fill="#000000" font-family="sans-serif" font-size="12" lengthAdjust="spacing" textLength="73" x="340.3" y="383.6543">InterestData</text><line style="stroke:#A80036;stroke-width:1.5;" x1="287" x2="436" y1="395.5" y2="395.5"/><text fill="#000000" font-family="sans-serif" font-size="11" lengthAdjust="spacing" textLength="107" x="292" y="409.7104">type: SavingsType</text><text fill="#000000" font-family="sans-serif" font-size="11" lengthAdjust="spacing" textLength="64" x="292" y="422.5151">amount: str</text><text fill="#000000" font-family="sans-serif" font-size="11" lengthAdjust="spacing" textLength="70" x="292" y="435.3198">currency: str</text><text fill="#000000" font-family="sans-serif" font-size="11" lengthAdjust="spacing" textLength="139" x="292" y="448.1245">data: datetime.datetime</text><text fill="#000000" font-family="sans-serif" font-size="11" lengthAdjust="spacing" textLength="97" x="292" y="460.9292">due: InterestDue</text><line style="stroke:#A80036;stroke-width:1.5;" x1="287" x2="436" y1="467.5234" y2="467.5234"/><!--MD5=[821aa65f00ecc48df650a4022852d6e5]
class SavingsType--><rect codeLine="60" fill="#FEFECE" filter="url(#f1mt5o9235qt8s)" height="73.6094" id="SavingsType" style="stroke:#A80036;stroke-width:1.5;" width="109" x="307" y="567"/><ellipse cx="322" cy="583" fill="#EB937F" rx="11" ry="11" style="stroke:#A80036;stroke-width:1.0;"/><path d="M320.7969,583.875 L322.25,583.875 L322.25,583.9844 C322.25,584.3906 322.2813,584.5469 322.3594,584.7031 C322.5156,584.9531 322.7969,585.1094 323.0938,585.1094 C323.3438,585.1094 323.6094,584.9688 323.7656,584.75 C323.8906,584.5938 323.9219,584.4375 323.9219,583.9844 L323.9219,582.0625 C323.9219,581.9063 323.9219,581.8594 323.9063,581.7031 C323.8438,581.2344 323.5313,580.9219 323.0781,580.9219 C322.8281,580.9219 322.5625,581.0625 322.3906,581.2813 C322.2813,581.4531 322.25,581.6094 322.25,582.0625 L322.25,582.1875 L320.7969,582.1875 L320.7969,579.7813 L324.7813,579.7813 L324.7813,580.6406 C324.7813,581.0469 324.8125,581.2188 324.8906,581.375 C325.0625,581.625 325.3438,581.7813 325.625,581.7813 C325.8906,581.7813 326.1563,581.6406 326.3281,581.4219 C326.4375,581.25 326.4688,581.1094 326.4688,580.6406 L326.4688,578.0938 L318.8438,578.0938 C318.4063,578.0938 318.2813,578.1094 318.125,578.2031 C317.875,578.3594 317.7188,578.6563 317.7188,578.9375 C317.7188,579.2188 317.8594,579.4688 318.0781,579.6406 C318.2344,579.75 318.4219,579.7813 318.8438,579.7813 L319.0938,579.7813 L319.0938,586.2969 L318.8438,586.2969 C318.4375,586.2969 318.2813,586.3125 318.125,586.4219 C317.875,586.5938 317.7188,586.8594 317.7188,587.1563 C317.7188,587.4219 317.8594,587.6719 318.0781,587.8281 C318.2188,587.9531 318.4531,588 318.8438,588 L326.8438,588 L326.8438,585.4219 C326.8438,584.9844 326.8125,584.8438 326.7344,584.6875 C326.5625,584.4375 326.2813,584.2813 326,584.2813 C325.7344,584.2813 325.4688,584.3906 325.2969,584.6406 C325.1875,584.7969 325.1563,584.9375 325.1563,585.4219 L325.1563,586.2969 L320.7969,586.2969 L320.7969,583.875 Z " fill="#000000"/><text fill="#000000" font-family="sans-serif" font-size="12" lengthAdjust="spacing" textLength="77" x="336" y="587.1543">SavingsType</text><line style="stroke:#A80036;stroke-width:1.5;" x1="308" x2="415" y1="599" y2="599"/><text fill="#000000" font-family="sans-serif" font-size="11" lengthAdjust="spacing" textLength="50" x="313" y="613.2104">LENDING</text><text fill="#000000" font-family="sans-serif" font-size="11" lengthAdjust="spacing" textLength="50" x="313" y="626.0151">STAKING</text><line style="stroke:#A80036;stroke-width:1.5;" x1="308" x2="415" y1="632.6094" y2="632.6094"/><!--MD5=[c4412bf69481d979e76c238e547cc7c2]
class InterestDue--><rect codeLine="65" fill="#FEFECE" filter="url(#f1mt5o9235qt8s)" height="86.4141" id="InterestDue" style="stroke:#A80036;stroke-width:1.5;" width="102" x="451.5" y="561"/><ellipse cx="466.5" cy="577" fill="#EB937F" rx="11" ry="11" style="stroke:#A80036;stroke-width:1.0;"/><path d="M465.2969,577.875 L466.75,577.875 L466.75,577.9844 C466.75,578.3906 466.7813,578.5469 466.8594,578.7031 C467.0156,578.9531 467.2969,579.1094 467.5938,579.1094 C467.8438,579.1094 468.1094,578.9688 468.2656,578.75 C468.3906,578.5938 468.4219,578.4375 468.4219,577.9844 L468.4219,576.0625 C468.4219,575.9063 468.4219,575.8594 468.4063,575.7031 C468.3438,575.2344 468.0313,574.9219 467.5781,574.9219 C467.3281,574.9219 467.0625,575.0625 466.8906,575.2813 C466.7813,575.4531 466.75,575.6094 466.75,576.0625 L466.75,576.1875 L465.2969,576.1875 L465.2969,573.7813 L469.2813,573.7813 L469.2813,574.6406 C469.2813,575.0469 469.3125,575.2188 469.3906,575.375 C469.5625,575.625 469.8438,575.7813 470.125,575.7813 C470.3906,575.7813 470.6563,575.6406 470.8281,575.4219 C470.9375,575.25 470.9688,575.1094 470.9688,574.6406 L470.9688,572.0938 L463.3438,572.0938 C462.9063,572.0938 462.7813,572.1094 462.625,572.2031 C462.375,572.3594 462.2188,572.6563 462.2188,572.9375 C462.2188,573.2188 462.3594,573.4688 462.5781,573.6406 C462.7344,573.75 462.9219,573.7813 463.3438,573.7813 L463.5938,573.7813 L463.5938,580.2969 L463.3438,580.2969 C462.9375,580.2969 462.7813,580.3125 462.625,580.4219 C462.375,580.5938 462.2188,580.8594 462.2188,581.1563 C462.2188,581.4219 462.3594,581.6719 462.5781,581.8281 C462.7188,581.9531 462.9531,582 463.3438,582 L471.3438,582 L471.3438,579.4219 C471.3438,578.9844 471.3125,578.8438 471.2344,578.6875 C471.0625,578.4375 470.7813,578.2813 470.5,578.2813 C470.2344,578.2813 469.9688,578.3906 469.7969,578.6406 C469.6875,578.7969 469.6563,578.9375 469.6563,579.4219 L469.6563,580.2969 L465.2969,580.2969 L465.2969,577.875 Z " fill="#000000"/><text fill="#000000" font-family="sans-serif" font-size="12" lengthAdjust="spacing" textLength="70" x="480.5" y="581.1543">InterestDue</text><line style="stroke:#A80036;stroke-width:1.5;" x1="452.5" x2="552.5" y1="593" y2="593"/><text fill="#000000" font-family="sans-serif" font-size="11" lengthAdjust="spacing" textLength="36" x="457.5" y="607.2104">DAILY,</text><text fill="#000000" font-family="sans-serif" font-size="11" lengthAdjust="spacing" textLength="36" x="457.5" y="620.0151">FIXED,</text><text fill="#000000" font-family="sans-serif" font-size="11" lengthAdjust="spacing" textLength="41" x="457.5" y="632.8198">ACTIVE</text><line style="stroke:#A80036;stroke-width:1.5;" x1="452.5" x2="552.5" y1="639.4141" y2="639.4141"/><!--MD5=[7761d8b2d08d0c59e94ab11572e05264]
class WithdrawalData--><rect codeLine="71" fill="#FEFECE" filter="url(#f1mt5o9235qt8s)" height="137.6328" id="WithdrawalData" style="stroke:#A80036;stroke-width:1.5;" width="132" x="472.5" y="350.5"/><ellipse cx="490.65" cy="366.5" fill="#ADD1B2" rx="11" ry="11" style="stroke:#A80036;stroke-width:1.0;"/><path d="M492.9938,362.1719 C492.0563,361.7344 491.4625,361.5938 490.5875,361.5938 C487.9625,361.5938 485.9625,363.6719 485.9625,366.3906 L485.9625,367.5156 C485.9625,370.0938 488.0719,371.9844 490.9625,371.9844 C492.1813,371.9844 493.3375,371.6875 494.0875,371.1406 C494.6656,370.7344 494.9938,370.2813 494.9938,369.8906 C494.9938,369.4375 494.6031,369.0469 494.1344,369.0469 C493.9156,369.0469 493.7125,369.125 493.525,369.3125 C493.0719,369.7969 493.0719,369.7969 492.8844,369.8906 C492.4625,370.1563 491.775,370.2813 491.0094,370.2813 C488.9625,370.2813 487.6656,369.1875 487.6656,367.4844 L487.6656,366.3906 C487.6656,364.6094 488.9156,363.2969 490.65,363.2969 C491.2281,363.2969 491.8375,363.4531 492.3063,363.7031 C492.7906,363.9844 492.9625,364.2031 493.0563,364.6094 C493.1188,365.0156 493.15,365.1406 493.2906,365.2656 C493.4313,365.4063 493.6656,365.5156 493.8844,365.5156 C494.15,365.5156 494.4156,365.375 494.5875,365.1563 C494.6969,365 494.7281,364.8125 494.7281,364.3906 L494.7281,362.9688 C494.7281,362.5313 494.7125,362.4063 494.6188,362.25 C494.4625,361.9844 494.1813,361.8438 493.8844,361.8438 C493.5875,361.8438 493.3844,361.9375 493.1656,362.25 L492.9938,362.1719 Z " fill="#000000"/><text fill="#000000" font-family="sans-serif" font-size="12" lengthAdjust="spacing" textLength="93" x="505.35" y="370.6543">WithdrawalData</text><line style="stroke:#A80036;stroke-width:1.5;" x1="473.5" x2="603.5" y1="382.5" y2="382.5"/><text fill="#000000" font-family="sans-serif" font-size="11" lengthAdjust="spacing" textLength="113" x="478.5" y="396.7104">trading_platform: str</text><text fill="#000000" font-family="sans-serif" font-size="11" lengthAdjust="spacing" textLength="75" x="478.5" y="409.5151">amount: float</text><text fill="#000000" font-family="sans-serif" font-size="11" lengthAdjust="spacing" textLength="52" x="478.5" y="422.3198">asset: str</text><text fill="#000000" font-family="sans-serif" font-size="11" lengthAdjust="spacing" textLength="106" x="478.5" y="435.1245">target_address: str</text><text fill="#000000" font-family="sans-serif" font-size="11" lengthAdjust="spacing" textLength="82" x="478.5" y="447.9292">timestamp: int</text><text fill="#000000" font-family="sans-serif" font-size="11" lengthAdjust="spacing" textLength="120" x="478.5" y="460.7339">transaction_fee: float</text><text fill="#000000" font-family="sans-serif" font-size="11" lengthAdjust="spacing" textLength="99" x="478.5" y="473.5386">transaction_id: str</text><line style="stroke:#A80036;stroke-width:1.5;" x1="473.5" x2="603.5" y1="480.1328" y2="480.1328"/><!--MD5=[b2875f3544f57e79784df295771ff7c3]
class DepositData--><rect codeLine="81" fill="#FEFECE" filter="url(#f1mt5o9235qt8s)" height="124.8281" id="DepositData" style="stroke:#A80036;stroke-width:1.5;" width="125" x="640" y="357"/><ellipse cx="663.55" cy="373" fill="#ADD1B2" rx="11" ry="11" style="stroke:#A80036;stroke-width:1.0;"/><path d="M665.8938,368.6719 C664.9563,368.2344 664.3625,368.0938 663.4875,368.0938 C660.8625,368.0938 658.8625,370.1719 658.8625,372.8906 L658.8625,374.0156 C658.8625,376.5938 660.9719,378.4844 663.8625,378.4844 C665.0813,378.4844 666.2375,378.1875 666.9875,377.6406 C667.5656,377.2344 667.8938,376.7813 667.8938,376.3906 C667.8938,375.9375 667.5031,375.5469 667.0344,375.5469 C666.8156,375.5469 666.6125,375.625 666.425,375.8125 C665.9719,376.2969 665.9719,376.2969 665.7844,376.3906 C665.3625,376.6563 664.675,376.7813 663.9094,376.7813 C661.8625,376.7813 660.5656,375.6875 660.5656,373.9844 L660.5656,372.8906 C660.5656,371.1094 661.8156,369.7969 663.55,369.7969 C664.1281,369.7969 664.7375,369.9531 665.2063,370.2031 C665.6906,370.4844 665.8625,370.7031 665.9563,371.1094 C666.0188,371.5156 666.05,371.6406 666.1906,371.7656 C666.3313,371.9063 666.5656,372.0156 666.7844,372.0156 C667.05,372.0156 667.3156,371.875 667.4875,371.6563 C667.5969,371.5 667.6281,371.3125 667.6281,370.8906 L667.6281,369.4688 C667.6281,369.0313 667.6125,368.9063 667.5188,368.75 C667.3625,368.4844 667.0813,368.3438 666.7844,368.3438 C666.4875,368.3438 666.2844,368.4375 666.0656,368.75 L665.8938,368.6719 Z " fill="#000000"/><text fill="#000000" font-family="sans-serif" font-size="12" lengthAdjust="spacing" textLength="74" x="679.45" y="377.1543">DepositData</text><line style="stroke:#A80036;stroke-width:1.5;" x1="641" x2="764" y1="389" y2="389"/><text fill="#000000" font-family="sans-serif" font-size="11" lengthAdjust="spacing" textLength="113" x="646" y="403.2104">trading_platform: str</text><text fill="#000000" font-family="sans-serif" font-size="11" lengthAdjust="spacing" textLength="75" x="646" y="416.0151">amount: float</text><text fill="#000000" font-family="sans-serif" font-size="11" lengthAdjust="spacing" textLength="52" x="646" y="428.8198">asset: str</text><text fill="#000000" font-family="sans-serif" font-size="11" lengthAdjust="spacing" textLength="106" x="646" y="441.6245">target_address: str</text><text fill="#000000" font-family="sans-serif" font-size="11" lengthAdjust="spacing" textLength="82" x="646" y="454.4292">timestamp: int</text><text fill="#000000" font-family="sans-serif" font-size="11" lengthAdjust="spacing" textLength="99" x="646" y="467.2339">transaction_id: str</text><line style="stroke:#A80036;stroke-width:1.5;" x1="641" x2="764" y1="473.8281" y2="473.8281"/><path d="M764.5,36.5 L764.5,76.7656 L986.5,76.7656 L986.5,46.5 L976.5,36.5 L764.5,36.5 " fill="#FBFB77" filter="url(#f1mt5o9235qt8s)" style="stroke:#A80036;stroke-width:1.0;"/><path d="M976.5,36.5 L976.5,46.5 L986.5,46.5 L976.5,36.5 " fill="#FBFB77" style="stroke:#A80036;stroke-width:1.0;"/><text fill="#000000" font-family="sans-serif" font-size="13" lengthAdjust="spacing" textLength="201" x="770.5" y="53.5669">These need to be implemented</text><text fill="#000000" font-family="sans-serif" font-size="13" lengthAdjust="spacing" textLength="124" x="770.5" y="68.6997">for each exchange.</text><!--MD5=[9a53173fd465870767fadac9c8eb4bbd]
reverse link AbstractCryptoExchangeClientModule to ExchangeXYClientModule--><path codeLine="22" d="M607.782,115.737 C660.451,144.064 720.775,176.508 760.365,197.801 " fill="none" id="AbstractCryptoExchangeClientModule-backto-ExchangeXYClientModule" style="stroke:#A80036;stroke-width:1.0;"/><polygon fill="none" points="604.185,121.751,589.887,106.113,610.817,109.421,604.185,121.751" style="stroke:#A80036;stroke-width:1.0;"/><!--MD5=[78614227f400994a3db8569152f876aa]
reverse link AbstractCryptoExchangeClient to ExchangeXYClient--><path codeLine="23" d="M631.361,283.685 C682.527,298.817 734.906,316.883 782.5,338 C817.261,353.423 853.501,377.557 878.142,395.381 " fill="none" id="AbstractCryptoExchangeClient-backto-ExchangeXYClient" style="stroke:#A80036;stroke-width:1.0;"/><polygon fill="none" points="629.088,290.314,611.824,278.028,632.981,276.866,629.088,290.314" style="stroke:#A80036;stroke-width:1.0;"/><!--MD5=[bc33d6244b8f4587a5a342f7e33f9994]
link AbstractCryptoExchangeClientModule to AbstractCryptoExchangeClient--><path codeLine="24" d="M458.469,106.113 C446.676,120.085 433.57,135.613 420.904,150.619 " fill="none" id="AbstractCryptoExchangeClientModule-to-AbstractCryptoExchangeClient" style="stroke:#A80036;stroke-width:1.0;stroke-dasharray:7.0,7.0;"/><polygon fill="none" points="426.187,155.212,407.938,165.981,415.489,146.182,426.187,155.212" style="stroke:#A80036;stroke-width:1.0;"/><!--MD5=[324c82440d083706c045708dad042324]
link TradeData to TradingPair--><path codeLine="49" d="M156.6,501.078 C168.894,520.092 181.593,539.733 192.522,556.6364 " fill="none" id="TradeData-to-TradingPair" style="stroke:#A80036;stroke-width:1.0;stroke-dasharray:7.0,7.0;"/><polygon fill="#A80036" points="195.262,560.873,193.7341,551.1434,192.5471,556.6743,187.0161,555.4873,195.262,560.873" style="stroke:#A80036;stroke-width:1.0;"/><!--MD5=[93d46a66258a4400e5c2c3d1360a18b4]
link TradeData to TransactionType--><path codeLine="50" d="M90.3712,501.078 C86.6982,522.026 82.8919,543.734 79.7408,561.7051 " fill="none" id="TradeData-to-TransactionType" style="stroke:#A80036;stroke-width:1.0;stroke-dasharray:7.0,7.0;"/><polygon fill="#A80036" points="78.87,566.6711,84.3645,558.4974,79.7337,561.7463,76.4848,557.1154,78.87,566.6711" style="stroke:#A80036;stroke-width:1.0;"/><!--MD5=[75d03f2631803b2e026a7725e4de63f4]
link InterestData to SavingsType--><path codeLine="90" d="M361.5,475.751 C361.5,503.372 361.5,536.232 361.5,561.6413 " fill="none" id="InterestData-to-SavingsType" style="stroke:#A80036;stroke-width:1.0;stroke-dasharray:7.0,7.0;"/><polygon fill="#A80036" points="361.5,566.9456,365.5,557.9456,361.5,561.9456,357.5,557.9456,361.5,566.9456" style="stroke:#A80036;stroke-width:1.0;"/><!--MD5=[5e756ed6f28c480a7417b73732f49f83]
link InterestData to InterestDue--><path codeLine="91" d="M404.187,475.751 C424.186,501.636 447.74,532.122 466.779,556.7652 " fill="none" id="InterestData-to-InterestDue" style="stroke:#A80036;stroke-width:1.0;stroke-dasharray:7.0,7.0;"/><polygon fill="#A80036" points="470.036,560.9814,467.6995,551.4137,466.9793,557.0245,461.3685,556.3043,470.036,560.9814" style="stroke:#A80036;stroke-width:1.0;"/><!--MD5=[e4281c5743f91236ef9b22e9998c6be5]
link AbstractCryptoExchangeClient to TradeData--><path codeLine="93" d="M286.266,278.12 C260.815,296.952 232.311,318.247 206.5,338 C199.018,343.726 191.262,349.727 183.521,355.759 " fill="none" id="AbstractCryptoExchangeClient-to-TradeData" style="stroke:#A80036;stroke-width:1.0;stroke-dasharray:7.0,7.0;"/><polygon fill="#A80036" points="179.224,359.113,188.7796,356.7275,183.1651,356.0361,183.8565,350.4216,179.224,359.113" style="stroke:#A80036;stroke-width:1.0;"/><!--MD5=[b0d23fc2b6cfaaf0c1f5cfe776853d2a]
link AbstractCryptoExchangeClient to InterestData--><path codeLine="94" d="M361.5,278.239 C361.5,303.221 361.5,332.803 361.5,358.346 " fill="none" id="AbstractCryptoExchangeClient-to-InterestData" style="stroke:#A80036;stroke-width:1.0;stroke-dasharray:7.0,7.0;"/><polygon fill="#A80036" points="361.5,363.398,365.5,354.398,361.5,358.398,357.5,354.398,361.5,363.398" style="stroke:#A80036;stroke-width:1.0;"/><!--MD5=[ea6d0a56654c4a48b86d7614c2a6d0a4]
link AbstractCryptoExchangeClient to TradingPair--><path codeLine="95" d="M307.431,278.219 C292.696,296.04 278.154,316.722 268.5,338 C236.165,409.265 226.452,500.796 223.6,555.5145 " fill="none" id="AbstractCryptoExchangeClient-to-TradingPair" style="stroke:#A80036;stroke-width:1.0;stroke-dasharray:7.0,7.0;"/><polygon fill="#A80036" points="223.345,560.6931,227.7832,551.9009,223.5911,555.6992,219.7929,551.5071,223.345,560.6931" style="stroke:#A80036;stroke-width:1.0;"/><!--MD5=[4f3b1f6ef70469f42cc4ca1ccd0452ba]
link AbstractCryptoExchangeClient to WithdrawalData--><path codeLine="96" d="M411.511,278.239 C430.646,299.373 452.761,323.8 473.121,346.287 " fill="none" id="AbstractCryptoExchangeClient-to-WithdrawalData" style="stroke:#A80036;stroke-width:1.0;stroke-dasharray:7.0,7.0;"/><polygon fill="#A80036" points="476.636,350.17,473.5599,340.8139,473.2798,346.4638,467.6299,346.1837,476.636,350.17" style="stroke:#A80036;stroke-width:1.0;"/><!--MD5=[71ce42cb4fffea4f065de6f26c50579d]
link AbstractCryptoExchangeClient to DepositData--><path codeLine="97" d="M511.227,278.063 C548.688,294.798 587.776,314.959 621.5,338 C628.278,342.631 634.983,347.87 641.46,353.399 " fill="none" id="AbstractCryptoExchangeClient-to-DepositData" style="stroke:#A80036;stroke-width:1.0;stroke-dasharray:7.0,7.0;"/><polygon fill="#A80036" points="645.463,356.876,641.2917,347.9541,641.6883,353.5971,636.0453,353.9937,645.463,356.876" style="stroke:#A80036;stroke-width:1.0;"/><!--MD5=[5ff0965bfcbb4a5b4d9f08ad91bfe7f0]
link impl_note to ExchangeXYClient--><path codeLine="101" d="M884.166,76.602 C893.31,97.895 907.128,133.604 912.5,166 C926.342,249.476 917.039,350.6 911.622,395.317 " fill="none" id="impl_note-ExchangeXYClient" style="stroke:#A80036;stroke-width:1.0;stroke-dasharray:7.0,7.0;"/><!--MD5=[338f08e8b1a2cbb431c947c435d0dc1e]
link impl_note to ExchangeXYClientModule--><path codeLine="102" d="M867.1,76.576 C853.82,106.732 828.017,165.327 813.696,197.847 " fill="none" id="impl_note-ExchangeXYClientModule" style="stroke:#A80036;stroke-width:1.0;stroke-dasharray:7.0,7.0;"/><!--MD5=[29f7cba7ea4ccaffafd68f50ea9b7240]
@startuml
abstract class AbstractCryptoExchangeClientModule {
  {abstract} is_enabled() -> bool
  {abstract} get_exchange_name() -> str
  {abstract} get_exchange_client() -> AbstractCryptoExchangeClient
  {static} get_instance() -> AbstractCryptoExchangeClientModule
}

abstract class AbstractCryptoExchangeClient {
  {abstract} get_trading_pairs(list_of_symbols_and_codes: List[str]) -> List[TradingPair]
  {abstract} get_trades(from_timestamp: int, to_timestamp: int, list_of_trading_pairs: List[TradingPair]) -> List[TradeData]
  {abstract} get_savings_interests(from_timestamp: int, to_timestamp: int, list_of_assets: List[str]) -> List[InterestData]
  {abstract} get_withdrawals(self, from_timestamp: int, to_timestamp: int, list_of_assets: List[str]) -> List[WithdrawalData]
  {abstract} get_deposits(self, from_timestamp: int, to_timestamp: int, list_of_assets: List[str]) -> List[DepositData]
}

class ExchangeXYClientModule {
}

class ExchangeXYClient {
}

AbstractCryptoExchangeClientModule <|- - ExchangeXYClientModule
AbstractCryptoExchangeClient <|- - ExchangeXYClient
AbstractCryptoExchangeClientModule ..|> AbstractCryptoExchangeClient

class TradeData {
  trading_platform: str
  commission_amount: str
  commission_asset: str
  currency_amount: str
  security_amount: str
  trading_pair: TradingPair
  type: TransactionType
  id: int
  time: int
}

class TradingPair {
  security: str
  currency: str
  pair: str
}

enum TransactionType {
  BUY
  SELL
}

TradeData ..> TradingPair
TradeData ..> TransactionType

class InterestData {
  type: SavingsType
  amount: str
  currency: str
  data: datetime.datetime
  due: InterestDue
}

enum SavingsType {
  LENDING
  STAKING
}

enum InterestDue {
  DAILY,
  FIXED,
  ACTIVE
}

class WithdrawalData {
  trading_platform: str
  amount: float
  asset: str
  target_address: str
  timestamp: int
  transaction_fee: float
  transaction_id: str
}

class DepositData {
  trading_platform: str
  amount: float
  asset: str
  target_address: str
  timestamp: int
  transaction_id: str
}

InterestData ..> SavingsType
InterestData ..> InterestDue

AbstractCryptoExchangeClient ..> TradeData
AbstractCryptoExchangeClient ..> InterestData
AbstractCryptoExchangeClient ..> TradingPair
AbstractCryptoExchangeClient ..> WithdrawalData
AbstractCryptoExchangeClient ..> DepositData

note "These need to be implemented\nfor each exchange." as impl_note

impl_note .. ExchangeXYClient
impl_note .. ExchangeXYClientModule
@enduml

PlantUML version 1.2021.5beta3(Unknown compile time)
(GPL source distribution)
Java Runtime: Java(TM) SE Runtime Environment
JVM: Java HotSpot(TM) 64-Bit Server VM
Default Encoding: UTF-8
Language: en
Country: US
--></g></svg>