<svg xmlns="http://www.w3.org/2000/svg" xmlns:xlink="http://www.w3.org/1999/xlink" contentScriptType="application/ecmascript" contentStyleType="text/css" height="622px" preserveAspectRatio="none" style="width:955px;height:622px;" version="1.1" viewBox="0 0 955 622" width="955px" zoomAndPan="magnify"><defs><filter height="300%" id="f14xs6azqbqtm8" width="300%" x="-1" y="-1"><feGaussianBlur result="blurOut" stdDeviation="2.0"/><feColorMatrix in="blurOut" result="blurOut2" type="matrix" values="0 0 0 0 0 0 0 0 0 0 0 0 0 0 0 0 0 0 .4 0"/><feOffset dx="4.0" dy="4.0" in="blurOut2" result="blurOut3"/><feBlend in="SourceGraphic" in2="blurOut3" mode="normal"/></filter></defs><g><!--MD5=[7e107ce4295cb601108fd52f25ff5dac]
class AbstractCryptoExchangeClientModule--><rect codeLine="1" fill="#FEFECE" filter="url(#f14xs6azqbqtm8)" height="86.4141" id="AbstractCryptoExchangeClientModule" style="stroke:#A80036;stroke-width:1.5;" width="328" x="296" y="7"/><ellipse cx="341.75" cy="23" fill="#A9DCDF" rx="11" ry="11" style="stroke:#A80036;stroke-width:1.0;"/><path d="M343.8281,24.8125 L344.2188,25.7969 L343.8281,25.7969 C343.375,25.7969 343.2656,25.8125 343.1094,25.9219 C342.8594,26.0781 342.7031,26.3594 342.7031,26.6563 C342.7031,26.9219 342.8438,27.1719 343.0625,27.3281 C343.2031,27.4531 343.4063,27.5 343.8281,27.5 L346.1875,27.5 C346.5469,27.5 346.7656,27.4688 346.9063,27.375 C347.1563,27.2344 347.3125,26.9375 347.3125,26.6563 C347.3125,26.375 347.1719,26.125 346.9531,25.9688 C346.7813,25.8281 346.625,25.7969 346.1563,25.7969 L342.7656,17.5938 L339.0938,17.5938 C338.6406,17.5938 338.5156,17.6094 338.3594,17.7031 C338.1094,17.875 337.9531,18.1563 337.9531,18.4375 C337.9531,18.7188 338.0938,18.9688 338.3125,19.1406 C338.4844,19.25 338.6563,19.2813 339.0938,19.2813 L340.1719,19.2813 L337.5313,25.7969 C337.1094,25.7969 336.9531,25.8125 336.7969,25.9219 C336.5469,26.0781 336.3906,26.3594 336.3906,26.6563 C336.3906,27.2188 336.7656,27.5 337.5156,27.5 L339.7813,27.5 C340.1406,27.5 340.3594,27.4688 340.4844,27.375 C340.75,27.2344 340.8906,26.9375 340.8906,26.6563 C340.8906,26.375 340.7656,26.125 340.5469,25.9531 C340.375,25.8281 340.2344,25.7969 339.7813,25.7969 L339.3906,25.7969 L339.7813,24.8125 L343.8281,24.8125 Z M343.125,23.1094 L340.4531,23.1094 L341.7969,19.8438 L343.125,23.1094 Z " fill="#000000"/><text fill="#000000" font-family="sans-serif" font-size="12" font-style="italic" lengthAdjust="spacing" textLength="228" x="362.25" y="27.1543">AbstractCryptoExchangeClientModule</text><line style="stroke:#A80036;stroke-width:1.5;" x1="297" x2="623" y1="39" y2="39"/><line style="stroke:#A80036;stroke-width:1.5;" x1="297" x2="623" y1="47" y2="47"/><text fill="#000000" font-family="sans-serif" font-size="11" font-style="italic" lengthAdjust="spacing" textLength="113" x="302" y="61.2104">is_enabled() -&gt; bool</text><text fill="#000000" font-family="sans-serif" font-size="11" font-style="italic" lengthAdjust="spacing" textLength="161" x="302" y="74.0151">get_exchange_name() -&gt; str</text><text fill="#000000" font-family="sans-serif" font-size="11" font-style="italic" lengthAdjust="spacing" textLength="316" x="302" y="86.8198">get_exchange_client() -&gt; AbstractCryptoExchangeClient</text><!--MD5=[ae1c4da9421319b082ef1c2e47167b39]
class AbstractCryptoExchangeClient--><rect codeLine="7" fill="#FEFECE" filter="url(#f14xs6azqbqtm8)" height="86.4141" id="AbstractCryptoExchangeClient" style="stroke:#A80036;stroke-width:1.5;" width="630" x="7" y="153"/><ellipse cx="225.25" cy="169" fill="#A9DCDF" rx="11" ry="11" style="stroke:#A80036;stroke-width:1.0;"/><path d="M227.3281,170.8125 L227.7188,171.7969 L227.3281,171.7969 C226.875,171.7969 226.7656,171.8125 226.6094,171.9219 C226.3594,172.0781 226.2031,172.3594 226.2031,172.6563 C226.2031,172.9219 226.3438,173.1719 226.5625,173.3281 C226.7031,173.4531 226.9063,173.5 227.3281,173.5 L229.6875,173.5 C230.0469,173.5 230.2656,173.4688 230.4063,173.375 C230.6563,173.2344 230.8125,172.9375 230.8125,172.6563 C230.8125,172.375 230.6719,172.125 230.4531,171.9688 C230.2813,171.8281 230.125,171.7969 229.6563,171.7969 L226.2656,163.5938 L222.5938,163.5938 C222.1406,163.5938 222.0156,163.6094 221.8594,163.7031 C221.6094,163.875 221.4531,164.1563 221.4531,164.4375 C221.4531,164.7188 221.5938,164.9688 221.8125,165.1406 C221.9844,165.25 222.1563,165.2813 222.5938,165.2813 L223.6719,165.2813 L221.0313,171.7969 C220.6094,171.7969 220.4531,171.8125 220.2969,171.9219 C220.0469,172.0781 219.8906,172.3594 219.8906,172.6563 C219.8906,173.2188 220.2656,173.5 221.0156,173.5 L223.2813,173.5 C223.6406,173.5 223.8594,173.4688 223.9844,173.375 C224.25,173.2344 224.3906,172.9375 224.3906,172.6563 C224.3906,172.375 224.2656,172.125 224.0469,171.9531 C223.875,171.8281 223.7344,171.7969 223.2813,171.7969 L222.8906,171.7969 L223.2813,170.8125 L227.3281,170.8125 Z M226.625,169.1094 L223.9531,169.1094 L225.2969,165.8438 L226.625,169.1094 Z " fill="#000000"/><text fill="#000000" font-family="sans-serif" font-size="12" font-style="italic" lengthAdjust="spacing" textLength="185" x="245.75" y="173.1543">AbstractCryptoExchangeClient</text><line style="stroke:#A80036;stroke-width:1.5;" x1="8" x2="636" y1="185" y2="185"/><line style="stroke:#A80036;stroke-width:1.5;" x1="8" x2="636" y1="193" y2="193"/><text fill="#000000" font-family="sans-serif" font-size="11" font-style="italic" lengthAdjust="spacing" textLength="421" x="13" y="207.2104">get_trading_pairs(list_of_symbols_and_codes: List[str]) -&gt; List[TradingPair]</text><text fill="#000000" font-family="sans-serif" font-size="11" font-style="italic" lengthAdjust="spacing" textLength="618" x="13" y="220.0151">get_trades(from_timestamp: int, to_timestamp: int, list_of_trading_pairs: List[TradingPair]) -&gt; List[TradeData]</text><text fill="#000000" font-family="sans-serif" font-size="11" font-style="italic" lengthAdjust="spacing" textLength="602" x="13" y="232.8198">get_savings_interests(from_timestamp: int, to_timestamp: int, list_of_assets: List[str]) -&gt; List[InterestData]</text><!--MD5=[dd48d4a7917ccbfcbaada9fd9b999f55]
class ExchangeXYClientModule--><rect codeLine="13" fill="#FEFECE" filter="url(#f14xs6azqbqtm8)" height="48" id="ExchangeXYClientModule" style="stroke:#A80036;stroke-width:1.5;" width="182" x="672" y="172"/><ellipse cx="687" cy="188" fill="#ADD1B2" rx="11" ry="11" style="stroke:#A80036;stroke-width:1.0;"/><path d="M689.3438,183.6719 C688.4063,183.2344 687.8125,183.0938 686.9375,183.0938 C684.3125,183.0938 682.3125,185.1719 682.3125,187.8906 L682.3125,189.0156 C682.3125,191.5938 684.4219,193.4844 687.3125,193.4844 C688.5313,193.4844 689.6875,193.1875 690.4375,192.6406 C691.0156,192.2344 691.3438,191.7813 691.3438,191.3906 C691.3438,190.9375 690.9531,190.5469 690.4844,190.5469 C690.2656,190.5469 690.0625,190.625 689.875,190.8125 C689.4219,191.2969 689.4219,191.2969 689.2344,191.3906 C688.8125,191.6563 688.125,191.7813 687.3594,191.7813 C685.3125,191.7813 684.0156,190.6875 684.0156,188.9844 L684.0156,187.8906 C684.0156,186.1094 685.2656,184.7969 687,184.7969 C687.5781,184.7969 688.1875,184.9531 688.6563,185.2031 C689.1406,185.4844 689.3125,185.7031 689.4063,186.1094 C689.4688,186.5156 689.5,186.6406 689.6406,186.7656 C689.7813,186.9063 690.0156,187.0156 690.2344,187.0156 C690.5,187.0156 690.7656,186.875 690.9375,186.6563 C691.0469,186.5 691.0781,186.3125 691.0781,185.8906 L691.0781,184.4688 C691.0781,184.0313 691.0625,183.9063 690.9688,183.75 C690.8125,183.4844 690.5313,183.3438 690.2344,183.3438 C689.9375,183.3438 689.7344,183.4375 689.5156,183.75 L689.3438,183.6719 Z " fill="#000000"/><text fill="#000000" font-family="sans-serif" font-size="12" lengthAdjust="spacing" textLength="150" x="701" y="192.1543">ExchangeXYClientModule</text><line style="stroke:#A80036;stroke-width:1.5;" x1="673" x2="853" y1="204" y2="204"/><line style="stroke:#A80036;stroke-width:1.5;" x1="673" x2="853" y1="212" y2="212"/><!--MD5=[deb2401ef1e962bc3a9f87f0a7395f85]
class ExchangeXYClient--><rect codeLine="16" fill="#FEFECE" filter="url(#f14xs6azqbqtm8)" height="48" id="ExchangeXYClient" style="stroke:#A80036;stroke-width:1.5;" width="138" x="700" y="356.5"/><ellipse cx="715" cy="372.5" fill="#ADD1B2" rx="11" ry="11" style="stroke:#A80036;stroke-width:1.0;"/><path d="M717.3438,368.1719 C716.4063,367.7344 715.8125,367.5938 714.9375,367.5938 C712.3125,367.5938 710.3125,369.6719 710.3125,372.3906 L710.3125,373.5156 C710.3125,376.0938 712.4219,377.9844 715.3125,377.9844 C716.5313,377.9844 717.6875,377.6875 718.4375,377.1406 C719.0156,376.7344 719.3438,376.2813 719.3438,375.8906 C719.3438,375.4375 718.9531,375.0469 718.4844,375.0469 C718.2656,375.0469 718.0625,375.125 717.875,375.3125 C717.4219,375.7969 717.4219,375.7969 717.2344,375.8906 C716.8125,376.1563 716.125,376.2813 715.3594,376.2813 C713.3125,376.2813 712.0156,375.1875 712.0156,373.4844 L712.0156,372.3906 C712.0156,370.6094 713.2656,369.2969 715,369.2969 C715.5781,369.2969 716.1875,369.4531 716.6563,369.7031 C717.1406,369.9844 717.3125,370.2031 717.4063,370.6094 C717.4688,371.0156 717.5,371.1406 717.6406,371.2656 C717.7813,371.4063 718.0156,371.5156 718.2344,371.5156 C718.5,371.5156 718.7656,371.375 718.9375,371.1563 C719.0469,371 719.0781,370.8125 719.0781,370.3906 L719.0781,368.9688 C719.0781,368.5313 719.0625,368.4063 718.9688,368.25 C718.8125,367.9844 718.5313,367.8438 718.2344,367.8438 C717.9375,367.8438 717.7344,367.9375 717.5156,368.25 L717.3438,368.1719 Z " fill="#000000"/><text fill="#000000" font-family="sans-serif" font-size="12" lengthAdjust="spacing" textLength="106" x="729" y="376.6543">ExchangeXYClient</text><line style="stroke:#A80036;stroke-width:1.5;" x1="701" x2="837" y1="388.5" y2="388.5"/><line style="stroke:#A80036;stroke-width:1.5;" x1="701" x2="837" y1="396.5" y2="396.5"/><!--MD5=[251d7dd5f3b5254487f905b379cbc88d]
class TradeData--><rect codeLine="23" fill="#FEFECE" filter="url(#f14xs6azqbqtm8)" height="163.2422" id="TradeData" style="stroke:#A80036;stroke-width:1.5;" width="149" x="119.5" y="299"/><ellipse cx="159.25" cy="315" fill="#ADD1B2" rx="11" ry="11" style="stroke:#A80036;stroke-width:1.0;"/><path d="M161.5938,310.6719 C160.6563,310.2344 160.0625,310.0938 159.1875,310.0938 C156.5625,310.0938 154.5625,312.1719 154.5625,314.8906 L154.5625,316.0156 C154.5625,318.5938 156.6719,320.4844 159.5625,320.4844 C160.7813,320.4844 161.9375,320.1875 162.6875,319.6406 C163.2656,319.2344 163.5938,318.7813 163.5938,318.3906 C163.5938,317.9375 163.2031,317.5469 162.7344,317.5469 C162.5156,317.5469 162.3125,317.625 162.125,317.8125 C161.6719,318.2969 161.6719,318.2969 161.4844,318.3906 C161.0625,318.6563 160.375,318.7813 159.6094,318.7813 C157.5625,318.7813 156.2656,317.6875 156.2656,315.9844 L156.2656,314.8906 C156.2656,313.1094 157.5156,311.7969 159.25,311.7969 C159.8281,311.7969 160.4375,311.9531 160.9063,312.2031 C161.3906,312.4844 161.5625,312.7031 161.6563,313.1094 C161.7188,313.5156 161.75,313.6406 161.8906,313.7656 C162.0313,313.9063 162.2656,314.0156 162.4844,314.0156 C162.75,314.0156 163.0156,313.875 163.1875,313.6563 C163.2969,313.5 163.3281,313.3125 163.3281,312.8906 L163.3281,311.4688 C163.3281,311.0313 163.3125,310.9063 163.2188,310.75 C163.0625,310.4844 162.7813,310.3438 162.4844,310.3438 C162.1875,310.3438 161.9844,310.4375 161.7656,310.75 L161.5938,310.6719 Z " fill="#000000"/><text fill="#000000" font-family="sans-serif" font-size="12" lengthAdjust="spacing" textLength="62" x="178.75" y="319.1543">TradeData</text><line style="stroke:#A80036;stroke-width:1.5;" x1="120.5" x2="267.5" y1="331" y2="331"/><text fill="#000000" font-family="sans-serif" font-size="11" lengthAdjust="spacing" textLength="113" x="125.5" y="345.2104">trading_platform: str</text><text fill="#000000" font-family="sans-serif" font-size="11" lengthAdjust="spacing" textLength="137" x="125.5" y="358.0151">commission_amount: str</text><text fill="#000000" font-family="sans-serif" font-size="11" lengthAdjust="spacing" textLength="125" x="125.5" y="370.8198">commission_asset: str</text><text fill="#000000" font-family="sans-serif" font-size="11" lengthAdjust="spacing" textLength="119" x="125.5" y="383.6245">currency_amount: str</text><text fill="#000000" font-family="sans-serif" font-size="11" lengthAdjust="spacing" textLength="115" x="125.5" y="396.4292">security_amount: str</text><text fill="#000000" font-family="sans-serif" font-size="11" lengthAdjust="spacing" textLength="135" x="125.5" y="409.2339">trading_pair: TradingPair</text><text fill="#000000" font-family="sans-serif" font-size="11" lengthAdjust="spacing" textLength="127" x="125.5" y="422.0386">type: TransactionType</text><text fill="#000000" font-family="sans-serif" font-size="11" lengthAdjust="spacing" textLength="31" x="125.5" y="434.8433">id: int</text><text fill="#000000" font-family="sans-serif" font-size="11" lengthAdjust="spacing" textLength="47" x="125.5" y="447.6479">time: int</text><line style="stroke:#A80036;stroke-width:1.5;" x1="120.5" x2="267.5" y1="454.2422" y2="454.2422"/><!--MD5=[da8fc32a5d12e5c2427eac7a411ce93d]
class TradingPair--><rect codeLine="35" fill="#FEFECE" filter="url(#f14xs6azqbqtm8)" height="86.4141" id="TradingPair" style="stroke:#A80036;stroke-width:1.5;" width="98" x="268" y="522"/><ellipse cx="283" cy="538" fill="#ADD1B2" rx="11" ry="11" style="stroke:#A80036;stroke-width:1.0;"/><path d="M285.3438,533.6719 C284.4063,533.2344 283.8125,533.0938 282.9375,533.0938 C280.3125,533.0938 278.3125,535.1719 278.3125,537.8906 L278.3125,539.0156 C278.3125,541.5938 280.4219,543.4844 283.3125,543.4844 C284.5313,543.4844 285.6875,543.1875 286.4375,542.6406 C287.0156,542.2344 287.3438,541.7813 287.3438,541.3906 C287.3438,540.9375 286.9531,540.5469 286.4844,540.5469 C286.2656,540.5469 286.0625,540.625 285.875,540.8125 C285.4219,541.2969 285.4219,541.2969 285.2344,541.3906 C284.8125,541.6563 284.125,541.7813 283.3594,541.7813 C281.3125,541.7813 280.0156,540.6875 280.0156,538.9844 L280.0156,537.8906 C280.0156,536.1094 281.2656,534.7969 283,534.7969 C283.5781,534.7969 284.1875,534.9531 284.6563,535.2031 C285.1406,535.4844 285.3125,535.7031 285.4063,536.1094 C285.4688,536.5156 285.5,536.6406 285.6406,536.7656 C285.7813,536.9063 286.0156,537.0156 286.2344,537.0156 C286.5,537.0156 286.7656,536.875 286.9375,536.6563 C287.0469,536.5 287.0781,536.3125 287.0781,535.8906 L287.0781,534.4688 C287.0781,534.0313 287.0625,533.9063 286.9688,533.75 C286.8125,533.4844 286.5313,533.3438 286.2344,533.3438 C285.9375,533.3438 285.7344,533.4375 285.5156,533.75 L285.3438,533.6719 Z " fill="#000000"/><text fill="#000000" font-family="sans-serif" font-size="12" lengthAdjust="spacing" textLength="66" x="297" y="542.1543">TradingPair</text><line style="stroke:#A80036;stroke-width:1.5;" x1="269" x2="365" y1="554" y2="554"/><text fill="#000000" font-family="sans-serif" font-size="11" lengthAdjust="spacing" textLength="66" x="274" y="568.2104">security: str</text><text fill="#000000" font-family="sans-serif" font-size="11" lengthAdjust="spacing" textLength="70" x="274" y="581.0151">currency: str</text><text fill="#000000" font-family="sans-serif" font-size="11" lengthAdjust="spacing" textLength="42" x="274" y="593.8198">pair: str</text><line style="stroke:#A80036;stroke-width:1.5;" x1="269" x2="365" y1="600.4141" y2="600.4141"/><!--MD5=[44af1887837e86aa2526a2bdc4cb389a]
class TransactionType--><rect codeLine="41" fill="#FEFECE" filter="url(#f14xs6azqbqtm8)" height="73.6094" id="TransactionType" style="stroke:#A80036;stroke-width:1.5;" width="131" x="101.5" y="528"/><ellipse cx="116.5" cy="544" fill="#EB937F" rx="11" ry="11" style="stroke:#A80036;stroke-width:1.0;"/><path d="M115.2969,544.875 L116.75,544.875 L116.75,544.9844 C116.75,545.3906 116.7813,545.5469 116.8594,545.7031 C117.0156,545.9531 117.2969,546.1094 117.5938,546.1094 C117.8438,546.1094 118.1094,545.9688 118.2656,545.75 C118.3906,545.5938 118.4219,545.4375 118.4219,544.9844 L118.4219,543.0625 C118.4219,542.9063 118.4219,542.8594 118.4063,542.7031 C118.3438,542.2344 118.0313,541.9219 117.5781,541.9219 C117.3281,541.9219 117.0625,542.0625 116.8906,542.2813 C116.7813,542.4531 116.75,542.6094 116.75,543.0625 L116.75,543.1875 L115.2969,543.1875 L115.2969,540.7813 L119.2813,540.7813 L119.2813,541.6406 C119.2813,542.0469 119.3125,542.2188 119.3906,542.375 C119.5625,542.625 119.8438,542.7813 120.125,542.7813 C120.3906,542.7813 120.6563,542.6406 120.8281,542.4219 C120.9375,542.25 120.9688,542.1094 120.9688,541.6406 L120.9688,539.0938 L113.3438,539.0938 C112.9063,539.0938 112.7813,539.1094 112.625,539.2031 C112.375,539.3594 112.2188,539.6563 112.2188,539.9375 C112.2188,540.2188 112.3594,540.4688 112.5781,540.6406 C112.7344,540.75 112.9219,540.7813 113.3438,540.7813 L113.5938,540.7813 L113.5938,547.2969 L113.3438,547.2969 C112.9375,547.2969 112.7813,547.3125 112.625,547.4219 C112.375,547.5938 112.2188,547.8594 112.2188,548.1563 C112.2188,548.4219 112.3594,548.6719 112.5781,548.8281 C112.7188,548.9531 112.9531,549 113.3438,549 L121.3438,549 L121.3438,546.4219 C121.3438,545.9844 121.3125,545.8438 121.2344,545.6875 C121.0625,545.4375 120.7813,545.2813 120.5,545.2813 C120.2344,545.2813 119.9688,545.3906 119.7969,545.6406 C119.6875,545.7969 119.6563,545.9375 119.6563,546.4219 L119.6563,547.2969 L115.2969,547.2969 L115.2969,544.875 Z " fill="#000000"/><text fill="#000000" font-family="sans-serif" font-size="12" lengthAdjust="spacing" textLength="99" x="130.5" y="548.1543">TransactionType</text><line style="stroke:#A80036;stroke-width:1.5;" x1="102.5" x2="231.5" y1="560" y2="560"/><text fill="#000000" font-family="sans-serif" font-size="11" lengthAdjust="spacing" textLength="23" x="107.5" y="574.2104">BUY</text><text fill="#000000" font-family="sans-serif" font-size="11" lengthAdjust="spacing" textLength="27" x="107.5" y="587.0151">SELL</text><line style="stroke:#A80036;stroke-width:1.5;" x1="102.5" x2="231.5" y1="593.6094" y2="593.6094"/><!--MD5=[4aacfc869f18b51607c6dca0928cb216]
class InterestData--><rect codeLine="49" fill="#FEFECE" filter="url(#f14xs6azqbqtm8)" height="112.0234" id="InterestData" style="stroke:#A80036;stroke-width:1.5;" width="151" x="380.5" y="324.5"/><ellipse cx="416.2" cy="340.5" fill="#ADD1B2" rx="11" ry="11" style="stroke:#A80036;stroke-width:1.0;"/><path d="M418.5438,336.1719 C417.6063,335.7344 417.0125,335.5938 416.1375,335.5938 C413.5125,335.5938 411.5125,337.6719 411.5125,340.3906 L411.5125,341.5156 C411.5125,344.0938 413.6219,345.9844 416.5125,345.9844 C417.7313,345.9844 418.8875,345.6875 419.6375,345.1406 C420.2156,344.7344 420.5438,344.2813 420.5438,343.8906 C420.5438,343.4375 420.1531,343.0469 419.6844,343.0469 C419.4656,343.0469 419.2625,343.125 419.075,343.3125 C418.6219,343.7969 418.6219,343.7969 418.4344,343.8906 C418.0125,344.1563 417.325,344.2813 416.5594,344.2813 C414.5125,344.2813 413.2156,343.1875 413.2156,341.4844 L413.2156,340.3906 C413.2156,338.6094 414.4656,337.2969 416.2,337.2969 C416.7781,337.2969 417.3875,337.4531 417.8563,337.7031 C418.3406,337.9844 418.5125,338.2031 418.6063,338.6094 C418.6688,339.0156 418.7,339.1406 418.8406,339.2656 C418.9813,339.4063 419.2156,339.5156 419.4344,339.5156 C419.7,339.5156 419.9656,339.375 420.1375,339.1563 C420.2469,339 420.2781,338.8125 420.2781,338.3906 L420.2781,336.9688 C420.2781,336.5313 420.2625,336.4063 420.1688,336.25 C420.0125,335.9844 419.7313,335.8438 419.4344,335.8438 C419.1375,335.8438 418.9344,335.9375 418.7156,336.25 L418.5438,336.1719 Z " fill="#000000"/><text fill="#000000" font-family="sans-serif" font-size="12" lengthAdjust="spacing" textLength="73" x="434.8" y="344.6543">InterestData</text><line style="stroke:#A80036;stroke-width:1.5;" x1="381.5" x2="530.5" y1="356.5" y2="356.5"/><text fill="#000000" font-family="sans-serif" font-size="11" lengthAdjust="spacing" textLength="107" x="386.5" y="370.7104">type: SavingsType</text><text fill="#000000" font-family="sans-serif" font-size="11" lengthAdjust="spacing" textLength="64" x="386.5" y="383.5151">amount: str</text><text fill="#000000" font-family="sans-serif" font-size="11" lengthAdjust="spacing" textLength="70" x="386.5" y="396.3198">currency: str</text><text fill="#000000" font-family="sans-serif" font-size="11" lengthAdjust="spacing" textLength="139" x="386.5" y="409.1245">data: datetime.datetime</text><text fill="#000000" font-family="sans-serif" font-size="11" lengthAdjust="spacing" textLength="97" x="386.5" y="421.9292">due: InterestDue</text><line style="stroke:#A80036;stroke-width:1.5;" x1="381.5" x2="530.5" y1="428.5234" y2="428.5234"/><!--MD5=[821aa65f00ecc48df650a4022852d6e5]
class SavingsType--><rect codeLine="57" fill="#FEFECE" filter="url(#f14xs6azqbqtm8)" height="73.6094" id="SavingsType" style="stroke:#A80036;stroke-width:1.5;" width="109" x="401.5" y="528"/><ellipse cx="416.5" cy="544" fill="#EB937F" rx="11" ry="11" style="stroke:#A80036;stroke-width:1.0;"/><path d="M415.2969,544.875 L416.75,544.875 L416.75,544.9844 C416.75,545.3906 416.7813,545.5469 416.8594,545.7031 C417.0156,545.9531 417.2969,546.1094 417.5938,546.1094 C417.8438,546.1094 418.1094,545.9688 418.2656,545.75 C418.3906,545.5938 418.4219,545.4375 418.4219,544.9844 L418.4219,543.0625 C418.4219,542.9063 418.4219,542.8594 418.4063,542.7031 C418.3438,542.2344 418.0313,541.9219 417.5781,541.9219 C417.3281,541.9219 417.0625,542.0625 416.8906,542.2813 C416.7813,542.4531 416.75,542.6094 416.75,543.0625 L416.75,543.1875 L415.2969,543.1875 L415.2969,540.7813 L419.2813,540.7813 L419.2813,541.6406 C419.2813,542.0469 419.3125,542.2188 419.3906,542.375 C419.5625,542.625 419.8438,542.7813 420.125,542.7813 C420.3906,542.7813 420.6563,542.6406 420.8281,542.4219 C420.9375,542.25 420.9688,542.1094 420.9688,541.6406 L420.9688,539.0938 L413.3438,539.0938 C412.9063,539.0938 412.7813,539.1094 412.625,539.2031 C412.375,539.3594 412.2188,539.6563 412.2188,539.9375 C412.2188,540.2188 412.3594,540.4688 412.5781,540.6406 C412.7344,540.75 412.9219,540.7813 413.3438,540.7813 L413.5938,540.7813 L413.5938,547.2969 L413.3438,547.2969 C412.9375,547.2969 412.7813,547.3125 412.625,547.4219 C412.375,547.5938 412.2188,547.8594 412.2188,548.1563 C412.2188,548.4219 412.3594,548.6719 412.5781,548.8281 C412.7188,548.9531 412.9531,549 413.3438,549 L421.3438,549 L421.3438,546.4219 C421.3438,545.9844 421.3125,545.8438 421.2344,545.6875 C421.0625,545.4375 420.7813,545.2813 420.5,545.2813 C420.2344,545.2813 419.9688,545.3906 419.7969,545.6406 C419.6875,545.7969 419.6563,545.9375 419.6563,546.4219 L419.6563,547.2969 L415.2969,547.2969 L415.2969,544.875 Z " fill="#000000"/><text fill="#000000" font-family="sans-serif" font-size="12" lengthAdjust="spacing" textLength="77" x="430.5" y="548.1543">SavingsType</text><line style="stroke:#A80036;stroke-width:1.5;" x1="402.5" x2="509.5" y1="560" y2="560"/><text fill="#000000" font-family="sans-serif" font-size="11" lengthAdjust="spacing" textLength="50" x="407.5" y="574.2104">LENDING</text><text fill="#000000" font-family="sans-serif" font-size="11" lengthAdjust="spacing" textLength="50" x="407.5" y="587.0151">STAKING</text><line style="stroke:#A80036;stroke-width:1.5;" x1="402.5" x2="509.5" y1="593.6094" y2="593.6094"/><!--MD5=[c4412bf69481d979e76c238e547cc7c2]
class InterestDue--><rect codeLine="62" fill="#FEFECE" filter="url(#f14xs6azqbqtm8)" height="86.4141" id="InterestDue" style="stroke:#A80036;stroke-width:1.5;" width="102" x="546" y="522"/><ellipse cx="561" cy="538" fill="#EB937F" rx="11" ry="11" style="stroke:#A80036;stroke-width:1.0;"/><path d="M559.7969,538.875 L561.25,538.875 L561.25,538.9844 C561.25,539.3906 561.2813,539.5469 561.3594,539.7031 C561.5156,539.9531 561.7969,540.1094 562.0938,540.1094 C562.3438,540.1094 562.6094,539.9688 562.7656,539.75 C562.8906,539.5938 562.9219,539.4375 562.9219,538.9844 L562.9219,537.0625 C562.9219,536.9063 562.9219,536.8594 562.9063,536.7031 C562.8438,536.2344 562.5313,535.9219 562.0781,535.9219 C561.8281,535.9219 561.5625,536.0625 561.3906,536.2813 C561.2813,536.4531 561.25,536.6094 561.25,537.0625 L561.25,537.1875 L559.7969,537.1875 L559.7969,534.7813 L563.7813,534.7813 L563.7813,535.6406 C563.7813,536.0469 563.8125,536.2188 563.8906,536.375 C564.0625,536.625 564.3438,536.7813 564.625,536.7813 C564.8906,536.7813 565.1563,536.6406 565.3281,536.4219 C565.4375,536.25 565.4688,536.1094 565.4688,535.6406 L565.4688,533.0938 L557.8438,533.0938 C557.4063,533.0938 557.2813,533.1094 557.125,533.2031 C556.875,533.3594 556.7188,533.6563 556.7188,533.9375 C556.7188,534.2188 556.8594,534.4688 557.0781,534.6406 C557.2344,534.75 557.4219,534.7813 557.8438,534.7813 L558.0938,534.7813 L558.0938,541.2969 L557.8438,541.2969 C557.4375,541.2969 557.2813,541.3125 557.125,541.4219 C556.875,541.5938 556.7188,541.8594 556.7188,542.1563 C556.7188,542.4219 556.8594,542.6719 557.0781,542.8281 C557.2188,542.9531 557.4531,543 557.8438,543 L565.8438,543 L565.8438,540.4219 C565.8438,539.9844 565.8125,539.8438 565.7344,539.6875 C565.5625,539.4375 565.2813,539.2813 565,539.2813 C564.7344,539.2813 564.4688,539.3906 564.2969,539.6406 C564.1875,539.7969 564.1563,539.9375 564.1563,540.4219 L564.1563,541.2969 L559.7969,541.2969 L559.7969,538.875 Z " fill="#000000"/><text fill="#000000" font-family="sans-serif" font-size="12" lengthAdjust="spacing" textLength="70" x="575" y="542.1543">InterestDue</text><line style="stroke:#A80036;stroke-width:1.5;" x1="547" x2="647" y1="554" y2="554"/><text fill="#000000" font-family="sans-serif" font-size="11" lengthAdjust="spacing" textLength="36" x="552" y="568.2104">DAILY,</text><text fill="#000000" font-family="sans-serif" font-size="11" lengthAdjust="spacing" textLength="36" x="552" y="581.0151">FIXED,</text><text fill="#000000" font-family="sans-serif" font-size="11" lengthAdjust="spacing" textLength="41" x="552" y="593.8198">ACTIVE</text><line style="stroke:#A80036;stroke-width:1.5;" x1="547" x2="647" y1="600.4141" y2="600.4141"/><path d="M724,30 L724,70.2656 L946,70.2656 L946,40 L936,30 L724,30 " fill="#FBFB77" filter="url(#f14xs6azqbqtm8)" style="stroke:#A80036;stroke-width:1.0;"/><path d="M936,30 L936,40 L946,40 L936,30 " fill="#FBFB77" style="stroke:#A80036;stroke-width:1.0;"/><text fill="#000000" font-family="sans-serif" font-size="13" lengthAdjust="spacing" textLength="201" x="730" y="47.0669">These need to be implemented</text><text fill="#000000" font-family="sans-serif" font-size="13" lengthAdjust="spacing" textLength="124" x="730" y="62.1997">for each exchange.</text><!--MD5=[9a53173fd465870767fadac9c8eb4bbd]
reverse link AbstractCryptoExchangeClientModule to ExchangeXYClientModule--><path codeLine="19" d="M566.645,101.683 C617.04,125.633 674.713,153.042 714.452,171.928 " fill="none" id="AbstractCryptoExchangeClientModule-backto-ExchangeXYClientModule" style="stroke:#A80036;stroke-width:1.0;"/><polygon fill="none" points="563.514,107.945,548.455,93.038,569.523,95.3,563.514,107.945" style="stroke:#A80036;stroke-width:1.0;"/><!--MD5=[78614227f400994a3db8569152f876aa]
reverse link AbstractCryptoExchangeClient to ExchangeXYClient--><path codeLine="20" d="M443.642,246.664 C531.176,282.402 645.226,328.966 712.439,356.407 " fill="none" id="AbstractCryptoExchangeClient-backto-ExchangeXYClient" style="stroke:#A80036;stroke-width:1.0;"/><polygon fill="none" points="440.982,253.139,425.112,239.098,446.274,240.177,440.982,253.139" style="stroke:#A80036;stroke-width:1.0;"/><!--MD5=[bc33d6244b8f4587a5a342f7e33f9994]
link AbstractCryptoExchangeClientModule to AbstractCryptoExchangeClient--><path codeLine="21" d="M419.714,93.038 C406.229,107.109 390.963,123.038 376.574,138.053 " fill="none" id="AbstractCryptoExchangeClientModule-to-AbstractCryptoExchangeClient" style="stroke:#A80036;stroke-width:1.0;stroke-dasharray:7.0,7.0;"/><polygon fill="none" points="381.467,143.064,362.575,152.661,371.359,133.377,381.467,143.064" style="stroke:#A80036;stroke-width:1.0;"/><!--MD5=[324c82440d083706c045708dad042324]
link TradeData to TradingPair--><path codeLine="46" d="M248.308,462.078 C261.122,481.092 274.36,500.733 285.752,517.6364 " fill="none" id="TradeData-to-TradingPair" style="stroke:#A80036;stroke-width:1.0;stroke-dasharray:7.0,7.0;"/><polygon fill="#A80036" points="288.608,521.873,286.8945,512.1744,285.8133,517.7269,280.2608,516.6458,288.608,521.873" style="stroke:#A80036;stroke-width:1.0;"/><!--MD5=[93d46a66258a4400e5c2c3d1360a18b4]
link TradeData to TransactionType--><path codeLine="47" d="M182.079,462.078 C178.98,483.026 175.768,504.734 173.109,522.7051 " fill="none" id="TradeData-to-TransactionType" style="stroke:#A80036;stroke-width:1.0;stroke-dasharray:7.0,7.0;"/><polygon fill="#A80036" points="172.375,527.6711,177.649,519.3534,173.1067,522.7249,169.7351,518.1826,172.375,527.6711" style="stroke:#A80036;stroke-width:1.0;"/><!--MD5=[75d03f2631803b2e026a7725e4de63f4]
link InterestData to SavingsType--><path codeLine="68" d="M456,436.751 C456,464.372 456,497.232 456,522.6413 " fill="none" id="InterestData-to-SavingsType" style="stroke:#A80036;stroke-width:1.0;stroke-dasharray:7.0,7.0;"/><polygon fill="#A80036" points="456,527.9456,460,518.9456,456,522.9456,452,518.9456,456,527.9456" style="stroke:#A80036;stroke-width:1.0;"/><!--MD5=[5e756ed6f28c480a7417b73732f49f83]
link InterestData to InterestDue--><path codeLine="69" d="M498.687,436.751 C518.686,462.636 542.24,493.122 561.279,517.7652 " fill="none" id="InterestData-to-InterestDue" style="stroke:#A80036;stroke-width:1.0;stroke-dasharray:7.0,7.0;"/><polygon fill="#A80036" points="564.536,521.9814,562.1995,512.4137,561.4793,518.0245,555.8685,517.3043,564.536,521.9814" style="stroke:#A80036;stroke-width:1.0;"/><!--MD5=[e4281c5743f91236ef9b22e9998c6be5]
link AbstractCryptoExchangeClient to TradeData--><path codeLine="71" d="M292.312,239.328 C280.778,255.774 267.132,275.23 253.736,294.33 " fill="none" id="AbstractCryptoExchangeClient-to-TradeData" style="stroke:#A80036;stroke-width:1.0;stroke-dasharray:7.0,7.0;"/><polygon fill="#A80036" points="250.702,298.656,259.1454,293.5857,253.5736,294.5629,252.5964,288.9911,250.702,298.656" style="stroke:#A80036;stroke-width:1.0;"/><!--MD5=[b0d23fc2b6cfaaf0c1f5cfe776853d2a]
link AbstractCryptoExchangeClient to InterestData--><path codeLine="72" d="M353.079,239.328 C370.692,263.316 393.008,293.708 412.354,320.056 " fill="none" id="AbstractCryptoExchangeClient-to-InterestData" style="stroke:#A80036;stroke-width:1.0;stroke-dasharray:7.0,7.0;"/><polygon fill="#A80036" points="415.432,324.249,413.3303,314.627,412.4731,320.2185,406.8816,319.3613,415.432,324.249" style="stroke:#A80036;stroke-width:1.0;"/><!--MD5=[ea6d0a56654c4a48b86d7614c2a6d0a4]
link AbstractCryptoExchangeClient to TradingPair--><path codeLine="73" d="M321.426,239.1 C320.487,308.05 318.627,444.582 317.644,516.745 " fill="none" id="AbstractCryptoExchangeClient-to-TradingPair" style="stroke:#A80036;stroke-width:1.0;stroke-dasharray:7.0,7.0;"/><polygon fill="#A80036" points="317.575,521.8277,321.6973,512.883,317.6431,516.8282,313.698,512.774,317.575,521.8277" style="stroke:#A80036;stroke-width:1.0;"/><!--MD5=[5ff0965bfcbb4a5b4d9f08ad91bfe7f0]
link impl_note to ExchangeXYClient--><path codeLine="77" d="M845.03,70.067 C861.756,104.469 891.659,178.932 872,239 C856.571,286.141 818.639,330.544 793.368,356.37 " fill="none" id="impl_note-ExchangeXYClient" style="stroke:#A80036;stroke-width:1.0;stroke-dasharray:7.0,7.0;"/><!--MD5=[338f08e8b1a2cbb431c947c435d0dc1e]
link impl_note to ExchangeXYClientModule--><path codeLine="78" d="M825.439,70.122 C812.28,96.44 788.617,143.765 774.506,171.989 " fill="none" id="impl_note-ExchangeXYClientModule" style="stroke:#A80036;stroke-width:1.0;stroke-dasharray:7.0,7.0;"/><!--MD5=[a0ed7e64f4f2c82db4c9c5aa2a3b320a]
@startuml
abstract class AbstractCryptoExchangeClientModule {
  {abstract} is_enabled() -> bool
  {abstract} get_exchange_name() -> str
  {abstract} get_exchange_client() -> AbstractCryptoExchangeClient
}

abstract class AbstractCryptoExchangeClient {
  {abstract} get_trading_pairs(list_of_symbols_and_codes: List[str]) -> List[TradingPair]
  {abstract} get_trades(from_timestamp: int, to_timestamp: int, list_of_trading_pairs: List[TradingPair]) -> List[TradeData]
  {abstract} get_savings_interests(from_timestamp: int, to_timestamp: int, list_of_assets: List[str]) -> List[InterestData]
}

class ExchangeXYClientModule {
}

class ExchangeXYClient {
}

AbstractCryptoExchangeClientModule <|- - ExchangeXYClientModule
AbstractCryptoExchangeClient <|- - ExchangeXYClient
AbstractCryptoExchangeClientModule ..|> AbstractCryptoExchangeClient

class TradeData {
  trading_platform: str
  commission_amount: str
  commission_asset: str
  currency_amount: str
  security_amount: str
  trading_pair: TradingPair
  type: TransactionType
  id: int
  time: int
}

class TradingPair {
  security: str
  currency: str
  pair: str
}

enum TransactionType {
  BUY
  SELL
}

TradeData ..> TradingPair
TradeData ..> TransactionType

class InterestData {
  type: SavingsType
  amount: str
  currency: str
  data: datetime.datetime
  due: InterestDue
}

enum SavingsType {
  LENDING
  STAKING
}

enum InterestDue {
  DAILY,
  FIXED,
  ACTIVE
}

InterestData ..> SavingsType
InterestData ..> InterestDue

AbstractCryptoExchangeClient ..> TradeData
AbstractCryptoExchangeClient ..> InterestData
AbstractCryptoExchangeClient ..> TradingPair

note "These need to be implemented\nfor each exchange." as impl_note

impl_note .. ExchangeXYClient
impl_note .. ExchangeXYClientModule
@enduml

PlantUML version 1.2021.5beta3(Unknown compile time)
(GPL source distribution)
Java Runtime: Java(TM) SE Runtime Environment
JVM: Java HotSpot(TM) 64-Bit Server VM
Default Encoding: UTF-8
Language: en
Country: US
--></g></svg>