<svg xmlns="http://www.w3.org/2000/svg" xmlns:xlink="http://www.w3.org/1999/xlink" contentScriptType="application/ecmascript" contentStyleType="text/css" height="622px" preserveAspectRatio="none" style="width:868px;height:622px;" version="1.1" viewBox="0 0 868 622" width="868px" zoomAndPan="magnify"><defs><filter height="300%" id="fm4lfl30gswxg" width="300%" x="-1" y="-1"><feGaussianBlur result="blurOut" stdDeviation="2.0"/><feColorMatrix in="blurOut" result="blurOut2" type="matrix" values="0 0 0 0 0 0 0 0 0 0 0 0 0 0 0 0 0 0 .4 0"/><feOffset dx="4.0" dy="4.0" in="blurOut2" result="blurOut3"/><feBlend in="SourceGraphic" in2="blurOut3" mode="normal"/></filter></defs><g><!--MD5=[7e107ce4295cb601108fd52f25ff5dac]
class AbstractCryptoExchangeClientModule--><rect codeLine="1" fill="#FEFECE" filter="url(#fm4lfl30gswxg)" height="86.4141" id="AbstractCryptoExchangeClientModule" style="stroke:#A80036;stroke-width:1.5;" width="296" x="394" y="7"/><ellipse cx="425.2" cy="23" fill="#A9DCDF" rx="11" ry="11" style="stroke:#A80036;stroke-width:1.0;"/><path d="M427.2781,24.8125 L427.6688,25.7969 L427.2781,25.7969 C426.825,25.7969 426.7156,25.8125 426.5594,25.9219 C426.3094,26.0781 426.1531,26.3594 426.1531,26.6563 C426.1531,26.9219 426.2938,27.1719 426.5125,27.3281 C426.6531,27.4531 426.8563,27.5 427.2781,27.5 L429.6375,27.5 C429.9969,27.5 430.2156,27.4688 430.3563,27.375 C430.6063,27.2344 430.7625,26.9375 430.7625,26.6563 C430.7625,26.375 430.6219,26.125 430.4031,25.9688 C430.2313,25.8281 430.075,25.7969 429.6063,25.7969 L426.2156,17.5938 L422.5438,17.5938 C422.0906,17.5938 421.9656,17.6094 421.8094,17.7031 C421.5594,17.875 421.4031,18.1563 421.4031,18.4375 C421.4031,18.7188 421.5438,18.9688 421.7625,19.1406 C421.9344,19.25 422.1063,19.2813 422.5438,19.2813 L423.6219,19.2813 L420.9813,25.7969 C420.5594,25.7969 420.4031,25.8125 420.2469,25.9219 C419.9969,26.0781 419.8406,26.3594 419.8406,26.6563 C419.8406,27.2188 420.2156,27.5 420.9656,27.5 L423.2313,27.5 C423.5906,27.5 423.8094,27.4688 423.9344,27.375 C424.2,27.2344 424.3406,26.9375 424.3406,26.6563 C424.3406,26.375 424.2156,26.125 423.9969,25.9531 C423.825,25.8281 423.6844,25.7969 423.2313,25.7969 L422.8406,25.7969 L423.2313,24.8125 L427.2781,24.8125 Z M426.575,23.1094 L423.9031,23.1094 L425.2469,19.8438 L426.575,23.1094 Z " fill="#000000"/><text fill="#000000" font-family="sans-serif" font-size="12" font-style="italic" lengthAdjust="spacing" textLength="228" x="442.8" y="27.1543">AbstractCryptoExchangeClientModule</text><line style="stroke:#A80036;stroke-width:1.5;" x1="395" x2="689" y1="39" y2="39"/><line style="stroke:#A80036;stroke-width:1.5;" x1="395" x2="689" y1="47" y2="47"/><text fill="#000000" font-family="sans-serif" font-size="11" font-style="italic" lengthAdjust="spacing" textLength="113" x="400" y="61.2104">is_enabled() -&gt; bool</text><text fill="#000000" font-family="sans-serif" font-size="11" font-style="italic" lengthAdjust="spacing" textLength="161" x="400" y="74.0151">get_exchange_name() -&gt; str</text><text fill="#000000" font-family="sans-serif" font-size="11" font-style="italic" lengthAdjust="spacing" textLength="284" x="400" y="86.8198">get_exchange_client() -&gt; AbstractCryptoExchange</text><!--MD5=[ae1c4da9421319b082ef1c2e47167b39]
class AbstractCryptoExchangeClient--><rect codeLine="7" fill="#FEFECE" filter="url(#fm4lfl30gswxg)" height="86.4141" id="AbstractCryptoExchangeClient" style="stroke:#A80036;stroke-width:1.5;" width="630" x="7" y="153"/><ellipse cx="225.25" cy="169" fill="#A9DCDF" rx="11" ry="11" style="stroke:#A80036;stroke-width:1.0;"/><path d="M227.3281,170.8125 L227.7188,171.7969 L227.3281,171.7969 C226.875,171.7969 226.7656,171.8125 226.6094,171.9219 C226.3594,172.0781 226.2031,172.3594 226.2031,172.6563 C226.2031,172.9219 226.3438,173.1719 226.5625,173.3281 C226.7031,173.4531 226.9063,173.5 227.3281,173.5 L229.6875,173.5 C230.0469,173.5 230.2656,173.4688 230.4063,173.375 C230.6563,173.2344 230.8125,172.9375 230.8125,172.6563 C230.8125,172.375 230.6719,172.125 230.4531,171.9688 C230.2813,171.8281 230.125,171.7969 229.6563,171.7969 L226.2656,163.5938 L222.5938,163.5938 C222.1406,163.5938 222.0156,163.6094 221.8594,163.7031 C221.6094,163.875 221.4531,164.1563 221.4531,164.4375 C221.4531,164.7188 221.5938,164.9688 221.8125,165.1406 C221.9844,165.25 222.1563,165.2813 222.5938,165.2813 L223.6719,165.2813 L221.0313,171.7969 C220.6094,171.7969 220.4531,171.8125 220.2969,171.9219 C220.0469,172.0781 219.8906,172.3594 219.8906,172.6563 C219.8906,173.2188 220.2656,173.5 221.0156,173.5 L223.2813,173.5 C223.6406,173.5 223.8594,173.4688 223.9844,173.375 C224.25,173.2344 224.3906,172.9375 224.3906,172.6563 C224.3906,172.375 224.2656,172.125 224.0469,171.9531 C223.875,171.8281 223.7344,171.7969 223.2813,171.7969 L222.8906,171.7969 L223.2813,170.8125 L227.3281,170.8125 Z M226.625,169.1094 L223.9531,169.1094 L225.2969,165.8438 L226.625,169.1094 Z " fill="#000000"/><text fill="#000000" font-family="sans-serif" font-size="12" font-style="italic" lengthAdjust="spacing" textLength="185" x="245.75" y="173.1543">AbstractCryptoExchangeClient</text><line style="stroke:#A80036;stroke-width:1.5;" x1="8" x2="636" y1="185" y2="185"/><line style="stroke:#A80036;stroke-width:1.5;" x1="8" x2="636" y1="193" y2="193"/><text fill="#000000" font-family="sans-serif" font-size="11" font-style="italic" lengthAdjust="spacing" textLength="421" x="13" y="207.2104">get_trading_pairs(list_of_symbols_and_codes: List[str]) -&gt; List[TradingPair]</text><text fill="#000000" font-family="sans-serif" font-size="11" font-style="italic" lengthAdjust="spacing" textLength="618" x="13" y="220.0151">get_trades(from_timestamp: int, to_timestamp: int, list_of_trading_pairs: List[TradingPair]) -&gt; List[TradeData]</text><text fill="#000000" font-family="sans-serif" font-size="11" font-style="italic" lengthAdjust="spacing" textLength="602" x="13" y="232.8198">get_savings_interests(from_timestamp: int, to_timestamp: int, list_of_assets: List[str]) -&gt; List[InterestData]</text><!--MD5=[dd48d4a7917ccbfcbaada9fd9b999f55]
class ExchangeXYClientModule--><rect codeLine="13" fill="#FEFECE" filter="url(#fm4lfl30gswxg)" height="48" id="ExchangeXYClientModule" style="stroke:#A80036;stroke-width:1.5;" width="182" x="672" y="172"/><ellipse cx="687" cy="188" fill="#ADD1B2" rx="11" ry="11" style="stroke:#A80036;stroke-width:1.0;"/><path d="M689.3438,183.6719 C688.4063,183.2344 687.8125,183.0938 686.9375,183.0938 C684.3125,183.0938 682.3125,185.1719 682.3125,187.8906 L682.3125,189.0156 C682.3125,191.5938 684.4219,193.4844 687.3125,193.4844 C688.5313,193.4844 689.6875,193.1875 690.4375,192.6406 C691.0156,192.2344 691.3438,191.7813 691.3438,191.3906 C691.3438,190.9375 690.9531,190.5469 690.4844,190.5469 C690.2656,190.5469 690.0625,190.625 689.875,190.8125 C689.4219,191.2969 689.4219,191.2969 689.2344,191.3906 C688.8125,191.6563 688.125,191.7813 687.3594,191.7813 C685.3125,191.7813 684.0156,190.6875 684.0156,188.9844 L684.0156,187.8906 C684.0156,186.1094 685.2656,184.7969 687,184.7969 C687.5781,184.7969 688.1875,184.9531 688.6563,185.2031 C689.1406,185.4844 689.3125,185.7031 689.4063,186.1094 C689.4688,186.5156 689.5,186.6406 689.6406,186.7656 C689.7813,186.9063 690.0156,187.0156 690.2344,187.0156 C690.5,187.0156 690.7656,186.875 690.9375,186.6563 C691.0469,186.5 691.0781,186.3125 691.0781,185.8906 L691.0781,184.4688 C691.0781,184.0313 691.0625,183.9063 690.9688,183.75 C690.8125,183.4844 690.5313,183.3438 690.2344,183.3438 C689.9375,183.3438 689.7344,183.4375 689.5156,183.75 L689.3438,183.6719 Z " fill="#000000"/><text fill="#000000" font-family="sans-serif" font-size="12" lengthAdjust="spacing" textLength="150" x="701" y="192.1543">ExchangeXYClientModule</text><line style="stroke:#A80036;stroke-width:1.5;" x1="673" x2="853" y1="204" y2="204"/><line style="stroke:#A80036;stroke-width:1.5;" x1="673" x2="853" y1="212" y2="212"/><!--MD5=[deb2401ef1e962bc3a9f87f0a7395f85]
class ExchangeXYClient--><rect codeLine="16" fill="#FEFECE" filter="url(#fm4lfl30gswxg)" height="48" id="ExchangeXYClient" style="stroke:#A80036;stroke-width:1.5;" width="138" x="74" y="356.5"/><ellipse cx="89" cy="372.5" fill="#ADD1B2" rx="11" ry="11" style="stroke:#A80036;stroke-width:1.0;"/><path d="M91.3438,368.1719 C90.4063,367.7344 89.8125,367.5938 88.9375,367.5938 C86.3125,367.5938 84.3125,369.6719 84.3125,372.3906 L84.3125,373.5156 C84.3125,376.0938 86.4219,377.9844 89.3125,377.9844 C90.5313,377.9844 91.6875,377.6875 92.4375,377.1406 C93.0156,376.7344 93.3438,376.2813 93.3438,375.8906 C93.3438,375.4375 92.9531,375.0469 92.4844,375.0469 C92.2656,375.0469 92.0625,375.125 91.875,375.3125 C91.4219,375.7969 91.4219,375.7969 91.2344,375.8906 C90.8125,376.1563 90.125,376.2813 89.3594,376.2813 C87.3125,376.2813 86.0156,375.1875 86.0156,373.4844 L86.0156,372.3906 C86.0156,370.6094 87.2656,369.2969 89,369.2969 C89.5781,369.2969 90.1875,369.4531 90.6563,369.7031 C91.1406,369.9844 91.3125,370.2031 91.4063,370.6094 C91.4688,371.0156 91.5,371.1406 91.6406,371.2656 C91.7813,371.4063 92.0156,371.5156 92.2344,371.5156 C92.5,371.5156 92.7656,371.375 92.9375,371.1563 C93.0469,371 93.0781,370.8125 93.0781,370.3906 L93.0781,368.9688 C93.0781,368.5313 93.0625,368.4063 92.9688,368.25 C92.8125,367.9844 92.5313,367.8438 92.2344,367.8438 C91.9375,367.8438 91.7344,367.9375 91.5156,368.25 L91.3438,368.1719 Z " fill="#000000"/><text fill="#000000" font-family="sans-serif" font-size="12" lengthAdjust="spacing" textLength="106" x="103" y="376.6543">ExchangeXYClient</text><line style="stroke:#A80036;stroke-width:1.5;" x1="75" x2="211" y1="388.5" y2="388.5"/><line style="stroke:#A80036;stroke-width:1.5;" x1="75" x2="211" y1="396.5" y2="396.5"/><!--MD5=[251d7dd5f3b5254487f905b379cbc88d]
class TradeData--><rect codeLine="23" fill="#FEFECE" filter="url(#fm4lfl30gswxg)" height="163.2422" id="TradeData" style="stroke:#A80036;stroke-width:1.5;" width="149" x="247.5" y="299"/><ellipse cx="287.25" cy="315" fill="#ADD1B2" rx="11" ry="11" style="stroke:#A80036;stroke-width:1.0;"/><path d="M289.5938,310.6719 C288.6563,310.2344 288.0625,310.0938 287.1875,310.0938 C284.5625,310.0938 282.5625,312.1719 282.5625,314.8906 L282.5625,316.0156 C282.5625,318.5938 284.6719,320.4844 287.5625,320.4844 C288.7813,320.4844 289.9375,320.1875 290.6875,319.6406 C291.2656,319.2344 291.5938,318.7813 291.5938,318.3906 C291.5938,317.9375 291.2031,317.5469 290.7344,317.5469 C290.5156,317.5469 290.3125,317.625 290.125,317.8125 C289.6719,318.2969 289.6719,318.2969 289.4844,318.3906 C289.0625,318.6563 288.375,318.7813 287.6094,318.7813 C285.5625,318.7813 284.2656,317.6875 284.2656,315.9844 L284.2656,314.8906 C284.2656,313.1094 285.5156,311.7969 287.25,311.7969 C287.8281,311.7969 288.4375,311.9531 288.9063,312.2031 C289.3906,312.4844 289.5625,312.7031 289.6563,313.1094 C289.7188,313.5156 289.75,313.6406 289.8906,313.7656 C290.0313,313.9063 290.2656,314.0156 290.4844,314.0156 C290.75,314.0156 291.0156,313.875 291.1875,313.6563 C291.2969,313.5 291.3281,313.3125 291.3281,312.8906 L291.3281,311.4688 C291.3281,311.0313 291.3125,310.9063 291.2188,310.75 C291.0625,310.4844 290.7813,310.3438 290.4844,310.3438 C290.1875,310.3438 289.9844,310.4375 289.7656,310.75 L289.5938,310.6719 Z " fill="#000000"/><text fill="#000000" font-family="sans-serif" font-size="12" lengthAdjust="spacing" textLength="62" x="306.75" y="319.1543">TradeData</text><line style="stroke:#A80036;stroke-width:1.5;" x1="248.5" x2="395.5" y1="331" y2="331"/><text fill="#000000" font-family="sans-serif" font-size="11" lengthAdjust="spacing" textLength="113" x="253.5" y="345.2104">trading_platform: str</text><text fill="#000000" font-family="sans-serif" font-size="11" lengthAdjust="spacing" textLength="137" x="253.5" y="358.0151">commission_amount: str</text><text fill="#000000" font-family="sans-serif" font-size="11" lengthAdjust="spacing" textLength="125" x="253.5" y="370.8198">commission_asset: str</text><text fill="#000000" font-family="sans-serif" font-size="11" lengthAdjust="spacing" textLength="119" x="253.5" y="383.6245">currency_amount: str</text><text fill="#000000" font-family="sans-serif" font-size="11" lengthAdjust="spacing" textLength="115" x="253.5" y="396.4292">security_amount: str</text><text fill="#000000" font-family="sans-serif" font-size="11" lengthAdjust="spacing" textLength="135" x="253.5" y="409.2339">trading_pair: TradingPair</text><text fill="#000000" font-family="sans-serif" font-size="11" lengthAdjust="spacing" textLength="127" x="253.5" y="422.0386">type: TransactionType</text><text fill="#000000" font-family="sans-serif" font-size="11" lengthAdjust="spacing" textLength="31" x="253.5" y="434.8433">id: int</text><text fill="#000000" font-family="sans-serif" font-size="11" lengthAdjust="spacing" textLength="47" x="253.5" y="447.6479">time: int</text><line style="stroke:#A80036;stroke-width:1.5;" x1="248.5" x2="395.5" y1="454.2422" y2="454.2422"/><!--MD5=[da8fc32a5d12e5c2427eac7a411ce93d]
class TradingPair--><rect codeLine="35" fill="#FEFECE" filter="url(#fm4lfl30gswxg)" height="86.4141" id="TradingPair" style="stroke:#A80036;stroke-width:1.5;" width="98" x="130" y="522"/><ellipse cx="145" cy="538" fill="#ADD1B2" rx="11" ry="11" style="stroke:#A80036;stroke-width:1.0;"/><path d="M147.3438,533.6719 C146.4063,533.2344 145.8125,533.0938 144.9375,533.0938 C142.3125,533.0938 140.3125,535.1719 140.3125,537.8906 L140.3125,539.0156 C140.3125,541.5938 142.4219,543.4844 145.3125,543.4844 C146.5313,543.4844 147.6875,543.1875 148.4375,542.6406 C149.0156,542.2344 149.3438,541.7813 149.3438,541.3906 C149.3438,540.9375 148.9531,540.5469 148.4844,540.5469 C148.2656,540.5469 148.0625,540.625 147.875,540.8125 C147.4219,541.2969 147.4219,541.2969 147.2344,541.3906 C146.8125,541.6563 146.125,541.7813 145.3594,541.7813 C143.3125,541.7813 142.0156,540.6875 142.0156,538.9844 L142.0156,537.8906 C142.0156,536.1094 143.2656,534.7969 145,534.7969 C145.5781,534.7969 146.1875,534.9531 146.6563,535.2031 C147.1406,535.4844 147.3125,535.7031 147.4063,536.1094 C147.4688,536.5156 147.5,536.6406 147.6406,536.7656 C147.7813,536.9063 148.0156,537.0156 148.2344,537.0156 C148.5,537.0156 148.7656,536.875 148.9375,536.6563 C149.0469,536.5 149.0781,536.3125 149.0781,535.8906 L149.0781,534.4688 C149.0781,534.0313 149.0625,533.9063 148.9688,533.75 C148.8125,533.4844 148.5313,533.3438 148.2344,533.3438 C147.9375,533.3438 147.7344,533.4375 147.5156,533.75 L147.3438,533.6719 Z " fill="#000000"/><text fill="#000000" font-family="sans-serif" font-size="12" lengthAdjust="spacing" textLength="66" x="159" y="542.1543">TradingPair</text><line style="stroke:#A80036;stroke-width:1.5;" x1="131" x2="227" y1="554" y2="554"/><text fill="#000000" font-family="sans-serif" font-size="11" lengthAdjust="spacing" textLength="66" x="136" y="568.2104">security: str</text><text fill="#000000" font-family="sans-serif" font-size="11" lengthAdjust="spacing" textLength="70" x="136" y="581.0151">currency: str</text><text fill="#000000" font-family="sans-serif" font-size="11" lengthAdjust="spacing" textLength="42" x="136" y="593.8198">pair: str</text><line style="stroke:#A80036;stroke-width:1.5;" x1="131" x2="227" y1="600.4141" y2="600.4141"/><!--MD5=[44af1887837e86aa2526a2bdc4cb389a]
class TransactionType--><rect codeLine="41" fill="#FEFECE" filter="url(#fm4lfl30gswxg)" height="73.6094" id="TransactionType" style="stroke:#A80036;stroke-width:1.5;" width="131" x="263.5" y="528"/><ellipse cx="278.5" cy="544" fill="#EB937F" rx="11" ry="11" style="stroke:#A80036;stroke-width:1.0;"/><path d="M277.2969,544.875 L278.75,544.875 L278.75,544.9844 C278.75,545.3906 278.7813,545.5469 278.8594,545.7031 C279.0156,545.9531 279.2969,546.1094 279.5938,546.1094 C279.8438,546.1094 280.1094,545.9688 280.2656,545.75 C280.3906,545.5938 280.4219,545.4375 280.4219,544.9844 L280.4219,543.0625 C280.4219,542.9063 280.4219,542.8594 280.4063,542.7031 C280.3438,542.2344 280.0313,541.9219 279.5781,541.9219 C279.3281,541.9219 279.0625,542.0625 278.8906,542.2813 C278.7813,542.4531 278.75,542.6094 278.75,543.0625 L278.75,543.1875 L277.2969,543.1875 L277.2969,540.7813 L281.2813,540.7813 L281.2813,541.6406 C281.2813,542.0469 281.3125,542.2188 281.3906,542.375 C281.5625,542.625 281.8438,542.7813 282.125,542.7813 C282.3906,542.7813 282.6563,542.6406 282.8281,542.4219 C282.9375,542.25 282.9688,542.1094 282.9688,541.6406 L282.9688,539.0938 L275.3438,539.0938 C274.9063,539.0938 274.7813,539.1094 274.625,539.2031 C274.375,539.3594 274.2188,539.6563 274.2188,539.9375 C274.2188,540.2188 274.3594,540.4688 274.5781,540.6406 C274.7344,540.75 274.9219,540.7813 275.3438,540.7813 L275.5938,540.7813 L275.5938,547.2969 L275.3438,547.2969 C274.9375,547.2969 274.7813,547.3125 274.625,547.4219 C274.375,547.5938 274.2188,547.8594 274.2188,548.1563 C274.2188,548.4219 274.3594,548.6719 274.5781,548.8281 C274.7188,548.9531 274.9531,549 275.3438,549 L283.3438,549 L283.3438,546.4219 C283.3438,545.9844 283.3125,545.8438 283.2344,545.6875 C283.0625,545.4375 282.7813,545.2813 282.5,545.2813 C282.2344,545.2813 281.9688,545.3906 281.7969,545.6406 C281.6875,545.7969 281.6563,545.9375 281.6563,546.4219 L281.6563,547.2969 L277.2969,547.2969 L277.2969,544.875 Z " fill="#000000"/><text fill="#000000" font-family="sans-serif" font-size="12" lengthAdjust="spacing" textLength="99" x="292.5" y="548.1543">TransactionType</text><line style="stroke:#A80036;stroke-width:1.5;" x1="264.5" x2="393.5" y1="560" y2="560"/><text fill="#000000" font-family="sans-serif" font-size="11" lengthAdjust="spacing" textLength="23" x="269.5" y="574.2104">BUY</text><text fill="#000000" font-family="sans-serif" font-size="11" lengthAdjust="spacing" textLength="27" x="269.5" y="587.0151">SELL</text><line style="stroke:#A80036;stroke-width:1.5;" x1="264.5" x2="393.5" y1="593.6094" y2="593.6094"/><!--MD5=[4aacfc869f18b51607c6dca0928cb216]
class InterestData--><rect codeLine="49" fill="#FEFECE" filter="url(#fm4lfl30gswxg)" height="112.0234" id="InterestData" style="stroke:#A80036;stroke-width:1.5;" width="151" x="431.5" y="324.5"/><ellipse cx="467.2" cy="340.5" fill="#ADD1B2" rx="11" ry="11" style="stroke:#A80036;stroke-width:1.0;"/><path d="M469.5438,336.1719 C468.6063,335.7344 468.0125,335.5938 467.1375,335.5938 C464.5125,335.5938 462.5125,337.6719 462.5125,340.3906 L462.5125,341.5156 C462.5125,344.0938 464.6219,345.9844 467.5125,345.9844 C468.7313,345.9844 469.8875,345.6875 470.6375,345.1406 C471.2156,344.7344 471.5438,344.2813 471.5438,343.8906 C471.5438,343.4375 471.1531,343.0469 470.6844,343.0469 C470.4656,343.0469 470.2625,343.125 470.075,343.3125 C469.6219,343.7969 469.6219,343.7969 469.4344,343.8906 C469.0125,344.1563 468.325,344.2813 467.5594,344.2813 C465.5125,344.2813 464.2156,343.1875 464.2156,341.4844 L464.2156,340.3906 C464.2156,338.6094 465.4656,337.2969 467.2,337.2969 C467.7781,337.2969 468.3875,337.4531 468.8563,337.7031 C469.3406,337.9844 469.5125,338.2031 469.6063,338.6094 C469.6688,339.0156 469.7,339.1406 469.8406,339.2656 C469.9813,339.4063 470.2156,339.5156 470.4344,339.5156 C470.7,339.5156 470.9656,339.375 471.1375,339.1563 C471.2469,339 471.2781,338.8125 471.2781,338.3906 L471.2781,336.9688 C471.2781,336.5313 471.2625,336.4063 471.1688,336.25 C471.0125,335.9844 470.7313,335.8438 470.4344,335.8438 C470.1375,335.8438 469.9344,335.9375 469.7156,336.25 L469.5438,336.1719 Z " fill="#000000"/><text fill="#000000" font-family="sans-serif" font-size="12" lengthAdjust="spacing" textLength="73" x="485.8" y="344.6543">InterestData</text><line style="stroke:#A80036;stroke-width:1.5;" x1="432.5" x2="581.5" y1="356.5" y2="356.5"/><text fill="#000000" font-family="sans-serif" font-size="11" lengthAdjust="spacing" textLength="107" x="437.5" y="370.7104">type: SavingsType</text><text fill="#000000" font-family="sans-serif" font-size="11" lengthAdjust="spacing" textLength="64" x="437.5" y="383.5151">amount: str</text><text fill="#000000" font-family="sans-serif" font-size="11" lengthAdjust="spacing" textLength="70" x="437.5" y="396.3198">currency: str</text><text fill="#000000" font-family="sans-serif" font-size="11" lengthAdjust="spacing" textLength="139" x="437.5" y="409.1245">data: datetime.datetime</text><text fill="#000000" font-family="sans-serif" font-size="11" lengthAdjust="spacing" textLength="97" x="437.5" y="421.9292">due: InterestDue</text><line style="stroke:#A80036;stroke-width:1.5;" x1="432.5" x2="581.5" y1="428.5234" y2="428.5234"/><!--MD5=[821aa65f00ecc48df650a4022852d6e5]
class SavingsType--><rect codeLine="57" fill="#FEFECE" filter="url(#fm4lfl30gswxg)" height="73.6094" id="SavingsType" style="stroke:#A80036;stroke-width:1.5;" width="109" x="444.5" y="528"/><ellipse cx="459.5" cy="544" fill="#EB937F" rx="11" ry="11" style="stroke:#A80036;stroke-width:1.0;"/><path d="M458.2969,544.875 L459.75,544.875 L459.75,544.9844 C459.75,545.3906 459.7813,545.5469 459.8594,545.7031 C460.0156,545.9531 460.2969,546.1094 460.5938,546.1094 C460.8438,546.1094 461.1094,545.9688 461.2656,545.75 C461.3906,545.5938 461.4219,545.4375 461.4219,544.9844 L461.4219,543.0625 C461.4219,542.9063 461.4219,542.8594 461.4063,542.7031 C461.3438,542.2344 461.0313,541.9219 460.5781,541.9219 C460.3281,541.9219 460.0625,542.0625 459.8906,542.2813 C459.7813,542.4531 459.75,542.6094 459.75,543.0625 L459.75,543.1875 L458.2969,543.1875 L458.2969,540.7813 L462.2813,540.7813 L462.2813,541.6406 C462.2813,542.0469 462.3125,542.2188 462.3906,542.375 C462.5625,542.625 462.8438,542.7813 463.125,542.7813 C463.3906,542.7813 463.6563,542.6406 463.8281,542.4219 C463.9375,542.25 463.9688,542.1094 463.9688,541.6406 L463.9688,539.0938 L456.3438,539.0938 C455.9063,539.0938 455.7813,539.1094 455.625,539.2031 C455.375,539.3594 455.2188,539.6563 455.2188,539.9375 C455.2188,540.2188 455.3594,540.4688 455.5781,540.6406 C455.7344,540.75 455.9219,540.7813 456.3438,540.7813 L456.5938,540.7813 L456.5938,547.2969 L456.3438,547.2969 C455.9375,547.2969 455.7813,547.3125 455.625,547.4219 C455.375,547.5938 455.2188,547.8594 455.2188,548.1563 C455.2188,548.4219 455.3594,548.6719 455.5781,548.8281 C455.7188,548.9531 455.9531,549 456.3438,549 L464.3438,549 L464.3438,546.4219 C464.3438,545.9844 464.3125,545.8438 464.2344,545.6875 C464.0625,545.4375 463.7813,545.2813 463.5,545.2813 C463.2344,545.2813 462.9688,545.3906 462.7969,545.6406 C462.6875,545.7969 462.6563,545.9375 462.6563,546.4219 L462.6563,547.2969 L458.2969,547.2969 L458.2969,544.875 Z " fill="#000000"/><text fill="#000000" font-family="sans-serif" font-size="12" lengthAdjust="spacing" textLength="77" x="473.5" y="548.1543">SavingsType</text><line style="stroke:#A80036;stroke-width:1.5;" x1="445.5" x2="552.5" y1="560" y2="560"/><text fill="#000000" font-family="sans-serif" font-size="11" lengthAdjust="spacing" textLength="50" x="450.5" y="574.2104">LENDING</text><text fill="#000000" font-family="sans-serif" font-size="11" lengthAdjust="spacing" textLength="50" x="450.5" y="587.0151">STAKING</text><line style="stroke:#A80036;stroke-width:1.5;" x1="445.5" x2="552.5" y1="593.6094" y2="593.6094"/><!--MD5=[c4412bf69481d979e76c238e547cc7c2]
class InterestDue--><rect codeLine="62" fill="#FEFECE" filter="url(#fm4lfl30gswxg)" height="86.4141" id="InterestDue" style="stroke:#A80036;stroke-width:1.5;" width="102" x="589" y="522"/><ellipse cx="604" cy="538" fill="#EB937F" rx="11" ry="11" style="stroke:#A80036;stroke-width:1.0;"/><path d="M602.7969,538.875 L604.25,538.875 L604.25,538.9844 C604.25,539.3906 604.2813,539.5469 604.3594,539.7031 C604.5156,539.9531 604.7969,540.1094 605.0938,540.1094 C605.3438,540.1094 605.6094,539.9688 605.7656,539.75 C605.8906,539.5938 605.9219,539.4375 605.9219,538.9844 L605.9219,537.0625 C605.9219,536.9063 605.9219,536.8594 605.9063,536.7031 C605.8438,536.2344 605.5313,535.9219 605.0781,535.9219 C604.8281,535.9219 604.5625,536.0625 604.3906,536.2813 C604.2813,536.4531 604.25,536.6094 604.25,537.0625 L604.25,537.1875 L602.7969,537.1875 L602.7969,534.7813 L606.7813,534.7813 L606.7813,535.6406 C606.7813,536.0469 606.8125,536.2188 606.8906,536.375 C607.0625,536.625 607.3438,536.7813 607.625,536.7813 C607.8906,536.7813 608.1563,536.6406 608.3281,536.4219 C608.4375,536.25 608.4688,536.1094 608.4688,535.6406 L608.4688,533.0938 L600.8438,533.0938 C600.4063,533.0938 600.2813,533.1094 600.125,533.2031 C599.875,533.3594 599.7188,533.6563 599.7188,533.9375 C599.7188,534.2188 599.8594,534.4688 600.0781,534.6406 C600.2344,534.75 600.4219,534.7813 600.8438,534.7813 L601.0938,534.7813 L601.0938,541.2969 L600.8438,541.2969 C600.4375,541.2969 600.2813,541.3125 600.125,541.4219 C599.875,541.5938 599.7188,541.8594 599.7188,542.1563 C599.7188,542.4219 599.8594,542.6719 600.0781,542.8281 C600.2188,542.9531 600.4531,543 600.8438,543 L608.8438,543 L608.8438,540.4219 C608.8438,539.9844 608.8125,539.8438 608.7344,539.6875 C608.5625,539.4375 608.2813,539.2813 608,539.2813 C607.7344,539.2813 607.4688,539.3906 607.2969,539.6406 C607.1875,539.7969 607.1563,539.9375 607.1563,540.4219 L607.1563,541.2969 L602.7969,541.2969 L602.7969,538.875 Z " fill="#000000"/><text fill="#000000" font-family="sans-serif" font-size="12" lengthAdjust="spacing" textLength="70" x="618" y="542.1543">InterestDue</text><line style="stroke:#A80036;stroke-width:1.5;" x1="590" x2="690" y1="554" y2="554"/><text fill="#000000" font-family="sans-serif" font-size="11" lengthAdjust="spacing" textLength="36" x="595" y="568.2104">DAILY,</text><text fill="#000000" font-family="sans-serif" font-size="11" lengthAdjust="spacing" textLength="36" x="595" y="581.0151">FIXED,</text><text fill="#000000" font-family="sans-serif" font-size="11" lengthAdjust="spacing" textLength="41" x="595" y="593.8198">ACTIVE</text><line style="stroke:#A80036;stroke-width:1.5;" x1="590" x2="690" y1="600.4141" y2="600.4141"/><!--MD5=[9a53173fd465870767fadac9c8eb4bbd]
reverse link AbstractCryptoExchangeClientModule to ExchangeXYClientModule--><path codeLine="19" d="M623.672,104.216 C659.477,127.546 699.623,153.705 727.59,171.928 " fill="none" id="AbstractCryptoExchangeClientModule-backto-ExchangeXYClientModule" style="stroke:#A80036;stroke-width:1.0;"/><polygon fill="none" points="619.452,109.821,606.516,93.038,627.095,98.091,619.452,109.821" style="stroke:#A80036;stroke-width:1.0;"/><!--MD5=[78614227f400994a3db8569152f876aa]
reverse link AbstractCryptoExchangeClient to ExchangeXYClient--><path codeLine="20" d="M266.474,253.611 C232.528,288.221 190.925,330.638 165.716,356.34 " fill="none" id="AbstractCryptoExchangeClient-backto-ExchangeXYClient" style="stroke:#A80036;stroke-width:1.0;"/><polygon fill="none" points="261.482,248.705,280.484,239.328,271.477,258.508,261.482,248.705" style="stroke:#A80036;stroke-width:1.0;"/><!--MD5=[bc33d6244b8f4587a5a342f7e33f9994]
link AbstractCryptoExchangeClientModule to AbstractCryptoExchangeClient--><path codeLine="21" d="M477.775,93.038 C454.496,108.275 427.888,125.692 403.329,141.767 " fill="none" id="AbstractCryptoExchangeClientModule-to-AbstractCryptoExchangeClient" style="stroke:#A80036;stroke-width:1.0;stroke-dasharray:7.0,7.0;"/><polygon fill="none" points="406.872,147.814,386.304,152.91,399.205,136.1,406.872,147.814" style="stroke:#A80036;stroke-width:1.0;"/><!--MD5=[324c82440d083706c045708dad042324]
link TradeData to TradingPair--><path codeLine="46" d="M258.862,462.078 C243.963,481.092 228.574,500.733 215.329,517.6364 " fill="none" id="TradeData-to-TradingPair" style="stroke:#A80036;stroke-width:1.0;stroke-dasharray:7.0,7.0;"/><polygon fill="#A80036" points="212.009,521.873,220.7085,517.2558,215.0929,517.9373,214.4114,512.3216,212.009,521.873" style="stroke:#A80036;stroke-width:1.0;"/><!--MD5=[93d46a66258a4400e5c2c3d1360a18b4]
link TradeData to TransactionType--><path codeLine="47" d="M325.091,462.078 C325.887,482.847 326.713,504.363 327.398,522.2435 " fill="none" id="TradeData-to-TransactionType" style="stroke:#A80036;stroke-width:1.0;stroke-dasharray:7.0,7.0;"/><polygon fill="#A80036" points="327.607,527.6711,331.259,518.5244,327.4153,522.6748,323.2649,518.8311,327.607,527.6711" style="stroke:#A80036;stroke-width:1.0;"/><!--MD5=[75d03f2631803b2e026a7725e4de63f4]
link InterestData to SavingsType--><path codeLine="68" d="M504.578,436.751 C503.367,464.372 501.927,497.232 500.813,522.6413 " fill="none" id="InterestData-to-SavingsType" style="stroke:#A80036;stroke-width:1.0;stroke-dasharray:7.0,7.0;"/><polygon fill="#A80036" points="500.58,527.9456,504.9703,519.1294,500.799,522.9504,496.978,518.7791,500.58,527.9456" style="stroke:#A80036;stroke-width:1.0;"/><!--MD5=[5e756ed6f28c480a7417b73732f49f83]
link InterestData to InterestDue--><path codeLine="69" d="M547.265,436.751 C566.129,462.636 588.347,493.122 606.306,517.7652 " fill="none" id="InterestData-to-InterestDue" style="stroke:#A80036;stroke-width:1.0;stroke-dasharray:7.0,7.0;"/><polygon fill="#A80036" points="609.378,521.9814,607.3108,512.3519,606.4335,517.9403,600.8451,517.063,609.378,521.9814" style="stroke:#A80036;stroke-width:1.0;"/><!--MD5=[e4281c5743f91236ef9b22e9998c6be5]
link AbstractCryptoExchangeClient to TradeData--><path codeLine="71" d="M322,239.328 C322,255.498 322,274.577 322,293.367 " fill="none" id="AbstractCryptoExchangeClient-to-TradeData" style="stroke:#A80036;stroke-width:1.0;stroke-dasharray:7.0,7.0;"/><polygon fill="#A80036" points="322,298.656,326,289.656,322,293.656,318,289.656,322,298.656" style="stroke:#A80036;stroke-width:1.0;"/><!--MD5=[b0d23fc2b6cfaaf0c1f5cfe776853d2a]
link AbstractCryptoExchangeClient to InterestData--><path codeLine="72" d="M364.908,239.328 C389.425,263.513 420.54,294.209 447.401,320.706 " fill="none" id="AbstractCryptoExchangeClient-to-InterestData" style="stroke:#A80036;stroke-width:1.0;stroke-dasharray:7.0,7.0;"/><polygon fill="#A80036" points="450.992,324.249,447.3934,315.0811,447.4323,320.7378,441.7755,320.7767,450.992,324.249" style="stroke:#A80036;stroke-width:1.0;"/><!--MD5=[7e4d1a831e5a6b0f053c41df0e9ec426]
@startuml
abstract class AbstractCryptoExchangeClientModule {
  {abstract} is_enabled() -> bool
  {abstract} get_exchange_name() -> str
  {abstract} get_exchange_client() -> AbstractCryptoExchange
}

abstract class AbstractCryptoExchangeClient {
  {abstract} get_trading_pairs(list_of_symbols_and_codes: List[str]) -> List[TradingPair]
  {abstract} get_trades(from_timestamp: int, to_timestamp: int, list_of_trading_pairs: List[TradingPair]) -> List[TradeData]
  {abstract} get_savings_interests(from_timestamp: int, to_timestamp: int, list_of_assets: List[str]) -> List[InterestData]
}

class ExchangeXYClientModule {
}

class ExchangeXYClient {
}

AbstractCryptoExchangeClientModule <|- - ExchangeXYClientModule
AbstractCryptoExchangeClient <|- - ExchangeXYClient
AbstractCryptoExchangeClientModule ..|> AbstractCryptoExchangeClient

class TradeData {
  trading_platform: str
  commission_amount: str
  commission_asset: str
  currency_amount: str
  security_amount: str
  trading_pair: TradingPair
  type: TransactionType
  id: int
  time: int
}

class TradingPair {
  security: str
  currency: str
  pair: str
}

enum TransactionType {
  BUY
  SELL
}

TradeData ..> TradingPair
TradeData ..> TransactionType

class InterestData {
  type: SavingsType
  amount: str
  currency: str
  data: datetime.datetime
  due: InterestDue
}

enum SavingsType {
  LENDING
  STAKING
}

enum InterestDue {
  DAILY,
  FIXED,
  ACTIVE
}

InterestData ..> SavingsType
InterestData ..> InterestDue

AbstractCryptoExchangeClient ..> TradeData
AbstractCryptoExchangeClient ..> InterestData
@enduml

PlantUML version 1.2021.5beta3(Unknown compile time)
(GPL source distribution)
Java Runtime: Java(TM) SE Runtime Environment
JVM: Java HotSpot(TM) 64-Bit Server VM
Default Encoding: UTF-8
Language: en
Country: US
--></g></svg>