<svg xmlns="http://www.w3.org/2000/svg" xmlns:xlink="http://www.w3.org/1999/xlink" contentScriptType="application/ecmascript" contentStyleType="text/css" height="635px" preserveAspectRatio="none" style="width:880px;height:635px;" version="1.1" viewBox="0 0 880 635" width="880px" zoomAndPan="magnify"><defs><filter height="300%" id="f1h3rwig18b4o1" width="300%" x="-1" y="-1"><feGaussianBlur result="blurOut" stdDeviation="2.0"/><feColorMatrix in="blurOut" result="blurOut2" type="matrix" values="0 0 0 0 0 0 0 0 0 0 0 0 0 0 0 0 0 0 .4 0"/><feOffset dx="4.0" dy="4.0" in="blurOut2" result="blurOut3"/><feBlend in="SourceGraphic" in2="blurOut3" mode="normal"/></filter></defs><g><!--MD5=[7e107ce4295cb601108fd52f25ff5dac]
class AbstractCryptoExchangeClientModule--><rect codeLine="1" fill="#FEFECE" filter="url(#f1h3rwig18b4o1)" height="99.2188" id="AbstractCryptoExchangeClientModule" style="stroke:#A80036;stroke-width:1.5;" width="296" x="403" y="7"/><ellipse cx="434.2" cy="23" fill="#A9DCDF" rx="11" ry="11" style="stroke:#A80036;stroke-width:1.0;"/><path d="M436.2781,24.8125 L436.6688,25.7969 L436.2781,25.7969 C435.825,25.7969 435.7156,25.8125 435.5594,25.9219 C435.3094,26.0781 435.1531,26.3594 435.1531,26.6563 C435.1531,26.9219 435.2938,27.1719 435.5125,27.3281 C435.6531,27.4531 435.8563,27.5 436.2781,27.5 L438.6375,27.5 C438.9969,27.5 439.2156,27.4688 439.3563,27.375 C439.6063,27.2344 439.7625,26.9375 439.7625,26.6563 C439.7625,26.375 439.6219,26.125 439.4031,25.9688 C439.2313,25.8281 439.075,25.7969 438.6063,25.7969 L435.2156,17.5938 L431.5438,17.5938 C431.0906,17.5938 430.9656,17.6094 430.8094,17.7031 C430.5594,17.875 430.4031,18.1563 430.4031,18.4375 C430.4031,18.7188 430.5438,18.9688 430.7625,19.1406 C430.9344,19.25 431.1063,19.2813 431.5438,19.2813 L432.6219,19.2813 L429.9813,25.7969 C429.5594,25.7969 429.4031,25.8125 429.2469,25.9219 C428.9969,26.0781 428.8406,26.3594 428.8406,26.6563 C428.8406,27.2188 429.2156,27.5 429.9656,27.5 L432.2313,27.5 C432.5906,27.5 432.8094,27.4688 432.9344,27.375 C433.2,27.2344 433.3406,26.9375 433.3406,26.6563 C433.3406,26.375 433.2156,26.125 432.9969,25.9531 C432.825,25.8281 432.6844,25.7969 432.2313,25.7969 L431.8406,25.7969 L432.2313,24.8125 L436.2781,24.8125 Z M435.575,23.1094 L432.9031,23.1094 L434.2469,19.8438 L435.575,23.1094 Z " fill="#000000"/><text fill="#000000" font-family="sans-serif" font-size="12" font-style="italic" lengthAdjust="spacing" textLength="228" x="451.8" y="27.1543">AbstractCryptoExchangeClientModule</text><line style="stroke:#A80036;stroke-width:1.5;" x1="404" x2="698" y1="39" y2="39"/><line style="stroke:#A80036;stroke-width:1.5;" x1="404" x2="698" y1="47" y2="47"/><text fill="#000000" font-family="sans-serif" font-size="11" font-style="italic" lengthAdjust="spacing" textLength="123" x="409" y="61.2104">can_connect() -&gt; bool</text><text fill="#000000" font-family="sans-serif" font-size="11" font-style="italic" lengthAdjust="spacing" textLength="161" x="409" y="74.0151">get_exchange_name() -&gt; str</text><text fill="#000000" font-family="sans-serif" font-size="11" font-style="italic" lengthAdjust="spacing" textLength="174" x="409" y="86.8198">get_config_entries() -&gt; List[str]</text><text fill="#000000" font-family="sans-serif" font-size="11" font-style="italic" lengthAdjust="spacing" textLength="284" x="409" y="99.6245">get_exchange_client() -&gt; AbstractCryptoExchange</text><!--MD5=[ae1c4da9421319b082ef1c2e47167b39]
class AbstractCryptoExchangeClient--><rect codeLine="8" fill="#FEFECE" filter="url(#f1h3rwig18b4o1)" height="86.4141" id="AbstractCryptoExchangeClient" style="stroke:#A80036;stroke-width:1.5;" width="642" x="7" y="166"/><ellipse cx="231.25" cy="182" fill="#A9DCDF" rx="11" ry="11" style="stroke:#A80036;stroke-width:1.0;"/><path d="M233.3281,183.8125 L233.7188,184.7969 L233.3281,184.7969 C232.875,184.7969 232.7656,184.8125 232.6094,184.9219 C232.3594,185.0781 232.2031,185.3594 232.2031,185.6563 C232.2031,185.9219 232.3438,186.1719 232.5625,186.3281 C232.7031,186.4531 232.9063,186.5 233.3281,186.5 L235.6875,186.5 C236.0469,186.5 236.2656,186.4688 236.4063,186.375 C236.6563,186.2344 236.8125,185.9375 236.8125,185.6563 C236.8125,185.375 236.6719,185.125 236.4531,184.9688 C236.2813,184.8281 236.125,184.7969 235.6563,184.7969 L232.2656,176.5938 L228.5938,176.5938 C228.1406,176.5938 228.0156,176.6094 227.8594,176.7031 C227.6094,176.875 227.4531,177.1563 227.4531,177.4375 C227.4531,177.7188 227.5938,177.9688 227.8125,178.1406 C227.9844,178.25 228.1563,178.2813 228.5938,178.2813 L229.6719,178.2813 L227.0313,184.7969 C226.6094,184.7969 226.4531,184.8125 226.2969,184.9219 C226.0469,185.0781 225.8906,185.3594 225.8906,185.6563 C225.8906,186.2188 226.2656,186.5 227.0156,186.5 L229.2813,186.5 C229.6406,186.5 229.8594,186.4688 229.9844,186.375 C230.25,186.2344 230.3906,185.9375 230.3906,185.6563 C230.3906,185.375 230.2656,185.125 230.0469,184.9531 C229.875,184.8281 229.7344,184.7969 229.2813,184.7969 L228.8906,184.7969 L229.2813,183.8125 L233.3281,183.8125 Z M232.625,182.1094 L229.9531,182.1094 L231.2969,178.8438 L232.625,182.1094 Z " fill="#000000"/><text fill="#000000" font-family="sans-serif" font-size="12" font-style="italic" lengthAdjust="spacing" textLength="185" x="251.75" y="186.1543">AbstractCryptoExchangeClient</text><line style="stroke:#A80036;stroke-width:1.5;" x1="8" x2="648" y1="198" y2="198"/><line style="stroke:#A80036;stroke-width:1.5;" x1="8" x2="648" y1="206" y2="206"/><text fill="#000000" font-family="sans-serif" font-size="11" font-style="italic" lengthAdjust="spacing" textLength="618" x="13" y="220.2104">get_trades(from_timestamp: int, to_timestamp: int, list_of_trading_pairs: List[TradingPair]) -&gt; List[TradeData]</text><text fill="#000000" font-family="sans-serif" font-size="11" font-style="italic" lengthAdjust="spacing" textLength="630" x="13" y="233.0151">get_savings_interests(self, from_timestamp: int, to_timestamp: int, list_of_assets: List[str]) -&gt; List[InterestData]</text><text fill="#000000" font-family="sans-serif" font-size="11" font-style="italic" lengthAdjust="spacing" textLength="232" x="13" y="245.8198">get_invalid_trading_pairs(self) -&gt; List[str]</text><!--MD5=[dd48d4a7917ccbfcbaada9fd9b999f55]
class ExchangeXYClientModule--><rect codeLine="14" fill="#FEFECE" filter="url(#f1h3rwig18b4o1)" height="48" id="ExchangeXYClientModule" style="stroke:#A80036;stroke-width:1.5;" width="182" x="684" y="185"/><ellipse cx="699" cy="201" fill="#ADD1B2" rx="11" ry="11" style="stroke:#A80036;stroke-width:1.0;"/><path d="M701.3438,196.6719 C700.4063,196.2344 699.8125,196.0938 698.9375,196.0938 C696.3125,196.0938 694.3125,198.1719 694.3125,200.8906 L694.3125,202.0156 C694.3125,204.5938 696.4219,206.4844 699.3125,206.4844 C700.5313,206.4844 701.6875,206.1875 702.4375,205.6406 C703.0156,205.2344 703.3438,204.7813 703.3438,204.3906 C703.3438,203.9375 702.9531,203.5469 702.4844,203.5469 C702.2656,203.5469 702.0625,203.625 701.875,203.8125 C701.4219,204.2969 701.4219,204.2969 701.2344,204.3906 C700.8125,204.6563 700.125,204.7813 699.3594,204.7813 C697.3125,204.7813 696.0156,203.6875 696.0156,201.9844 L696.0156,200.8906 C696.0156,199.1094 697.2656,197.7969 699,197.7969 C699.5781,197.7969 700.1875,197.9531 700.6563,198.2031 C701.1406,198.4844 701.3125,198.7031 701.4063,199.1094 C701.4688,199.5156 701.5,199.6406 701.6406,199.7656 C701.7813,199.9063 702.0156,200.0156 702.2344,200.0156 C702.5,200.0156 702.7656,199.875 702.9375,199.6563 C703.0469,199.5 703.0781,199.3125 703.0781,198.8906 L703.0781,197.4688 C703.0781,197.0313 703.0625,196.9063 702.9688,196.75 C702.8125,196.4844 702.5313,196.3438 702.2344,196.3438 C701.9375,196.3438 701.7344,196.4375 701.5156,196.75 L701.3438,196.6719 Z " fill="#000000"/><text fill="#000000" font-family="sans-serif" font-size="12" lengthAdjust="spacing" textLength="150" x="713" y="205.1543">ExchangeXYClientModule</text><line style="stroke:#A80036;stroke-width:1.5;" x1="685" x2="865" y1="217" y2="217"/><line style="stroke:#A80036;stroke-width:1.5;" x1="685" x2="865" y1="225" y2="225"/><!--MD5=[deb2401ef1e962bc3a9f87f0a7395f85]
class ExchangeXYClient--><rect codeLine="17" fill="#FEFECE" filter="url(#f1h3rwig18b4o1)" height="48" id="ExchangeXYClient" style="stroke:#A80036;stroke-width:1.5;" width="138" x="80" y="369.5"/><ellipse cx="95" cy="385.5" fill="#ADD1B2" rx="11" ry="11" style="stroke:#A80036;stroke-width:1.0;"/><path d="M97.3438,381.1719 C96.4063,380.7344 95.8125,380.5938 94.9375,380.5938 C92.3125,380.5938 90.3125,382.6719 90.3125,385.3906 L90.3125,386.5156 C90.3125,389.0938 92.4219,390.9844 95.3125,390.9844 C96.5313,390.9844 97.6875,390.6875 98.4375,390.1406 C99.0156,389.7344 99.3438,389.2813 99.3438,388.8906 C99.3438,388.4375 98.9531,388.0469 98.4844,388.0469 C98.2656,388.0469 98.0625,388.125 97.875,388.3125 C97.4219,388.7969 97.4219,388.7969 97.2344,388.8906 C96.8125,389.1563 96.125,389.2813 95.3594,389.2813 C93.3125,389.2813 92.0156,388.1875 92.0156,386.4844 L92.0156,385.3906 C92.0156,383.6094 93.2656,382.2969 95,382.2969 C95.5781,382.2969 96.1875,382.4531 96.6563,382.7031 C97.1406,382.9844 97.3125,383.2031 97.4063,383.6094 C97.4688,384.0156 97.5,384.1406 97.6406,384.2656 C97.7813,384.4063 98.0156,384.5156 98.2344,384.5156 C98.5,384.5156 98.7656,384.375 98.9375,384.1563 C99.0469,384 99.0781,383.8125 99.0781,383.3906 L99.0781,381.9688 C99.0781,381.5313 99.0625,381.4063 98.9688,381.25 C98.8125,380.9844 98.5313,380.8438 98.2344,380.8438 C97.9375,380.8438 97.7344,380.9375 97.5156,381.25 L97.3438,381.1719 Z " fill="#000000"/><text fill="#000000" font-family="sans-serif" font-size="12" lengthAdjust="spacing" textLength="106" x="109" y="389.6543">ExchangeXYClient</text><line style="stroke:#A80036;stroke-width:1.5;" x1="81" x2="217" y1="401.5" y2="401.5"/><line style="stroke:#A80036;stroke-width:1.5;" x1="81" x2="217" y1="409.5" y2="409.5"/><!--MD5=[251d7dd5f3b5254487f905b379cbc88d]
class TradeData--><rect codeLine="24" fill="#FEFECE" filter="url(#f1h3rwig18b4o1)" height="163.2422" id="TradeData" style="stroke:#A80036;stroke-width:1.5;" width="149" x="253.5" y="312"/><ellipse cx="293.25" cy="328" fill="#ADD1B2" rx="11" ry="11" style="stroke:#A80036;stroke-width:1.0;"/><path d="M295.5938,323.6719 C294.6563,323.2344 294.0625,323.0938 293.1875,323.0938 C290.5625,323.0938 288.5625,325.1719 288.5625,327.8906 L288.5625,329.0156 C288.5625,331.5938 290.6719,333.4844 293.5625,333.4844 C294.7813,333.4844 295.9375,333.1875 296.6875,332.6406 C297.2656,332.2344 297.5938,331.7813 297.5938,331.3906 C297.5938,330.9375 297.2031,330.5469 296.7344,330.5469 C296.5156,330.5469 296.3125,330.625 296.125,330.8125 C295.6719,331.2969 295.6719,331.2969 295.4844,331.3906 C295.0625,331.6563 294.375,331.7813 293.6094,331.7813 C291.5625,331.7813 290.2656,330.6875 290.2656,328.9844 L290.2656,327.8906 C290.2656,326.1094 291.5156,324.7969 293.25,324.7969 C293.8281,324.7969 294.4375,324.9531 294.9063,325.2031 C295.3906,325.4844 295.5625,325.7031 295.6563,326.1094 C295.7188,326.5156 295.75,326.6406 295.8906,326.7656 C296.0313,326.9063 296.2656,327.0156 296.4844,327.0156 C296.75,327.0156 297.0156,326.875 297.1875,326.6563 C297.2969,326.5 297.3281,326.3125 297.3281,325.8906 L297.3281,324.4688 C297.3281,324.0313 297.3125,323.9063 297.2188,323.75 C297.0625,323.4844 296.7813,323.3438 296.4844,323.3438 C296.1875,323.3438 295.9844,323.4375 295.7656,323.75 L295.5938,323.6719 Z " fill="#000000"/><text fill="#000000" font-family="sans-serif" font-size="12" lengthAdjust="spacing" textLength="62" x="312.75" y="332.1543">TradeData</text><line style="stroke:#A80036;stroke-width:1.5;" x1="254.5" x2="401.5" y1="344" y2="344"/><text fill="#000000" font-family="sans-serif" font-size="11" lengthAdjust="spacing" textLength="113" x="259.5" y="358.2104">trading_platform: str</text><text fill="#000000" font-family="sans-serif" font-size="11" lengthAdjust="spacing" textLength="137" x="259.5" y="371.0151">commission_amount: str</text><text fill="#000000" font-family="sans-serif" font-size="11" lengthAdjust="spacing" textLength="125" x="259.5" y="383.8198">commission_asset: str</text><text fill="#000000" font-family="sans-serif" font-size="11" lengthAdjust="spacing" textLength="119" x="259.5" y="396.6245">currency_amount: str</text><text fill="#000000" font-family="sans-serif" font-size="11" lengthAdjust="spacing" textLength="115" x="259.5" y="409.4292">security_amount: str</text><text fill="#000000" font-family="sans-serif" font-size="11" lengthAdjust="spacing" textLength="135" x="259.5" y="422.2339">trading_pair: TradingPair</text><text fill="#000000" font-family="sans-serif" font-size="11" lengthAdjust="spacing" textLength="127" x="259.5" y="435.0386">type: TransactionType</text><text fill="#000000" font-family="sans-serif" font-size="11" lengthAdjust="spacing" textLength="31" x="259.5" y="447.8433">id: int</text><text fill="#000000" font-family="sans-serif" font-size="11" lengthAdjust="spacing" textLength="47" x="259.5" y="460.6479">time: int</text><line style="stroke:#A80036;stroke-width:1.5;" x1="254.5" x2="401.5" y1="467.2422" y2="467.2422"/><!--MD5=[da8fc32a5d12e5c2427eac7a411ce93d]
class TradingPair--><rect codeLine="36" fill="#FEFECE" filter="url(#f1h3rwig18b4o1)" height="86.4141" id="TradingPair" style="stroke:#A80036;stroke-width:1.5;" width="98" x="136" y="535"/><ellipse cx="151" cy="551" fill="#ADD1B2" rx="11" ry="11" style="stroke:#A80036;stroke-width:1.0;"/><path d="M153.3438,546.6719 C152.4063,546.2344 151.8125,546.0938 150.9375,546.0938 C148.3125,546.0938 146.3125,548.1719 146.3125,550.8906 L146.3125,552.0156 C146.3125,554.5938 148.4219,556.4844 151.3125,556.4844 C152.5313,556.4844 153.6875,556.1875 154.4375,555.6406 C155.0156,555.2344 155.3438,554.7813 155.3438,554.3906 C155.3438,553.9375 154.9531,553.5469 154.4844,553.5469 C154.2656,553.5469 154.0625,553.625 153.875,553.8125 C153.4219,554.2969 153.4219,554.2969 153.2344,554.3906 C152.8125,554.6563 152.125,554.7813 151.3594,554.7813 C149.3125,554.7813 148.0156,553.6875 148.0156,551.9844 L148.0156,550.8906 C148.0156,549.1094 149.2656,547.7969 151,547.7969 C151.5781,547.7969 152.1875,547.9531 152.6563,548.2031 C153.1406,548.4844 153.3125,548.7031 153.4063,549.1094 C153.4688,549.5156 153.5,549.6406 153.6406,549.7656 C153.7813,549.9063 154.0156,550.0156 154.2344,550.0156 C154.5,550.0156 154.7656,549.875 154.9375,549.6563 C155.0469,549.5 155.0781,549.3125 155.0781,548.8906 L155.0781,547.4688 C155.0781,547.0313 155.0625,546.9063 154.9688,546.75 C154.8125,546.4844 154.5313,546.3438 154.2344,546.3438 C153.9375,546.3438 153.7344,546.4375 153.5156,546.75 L153.3438,546.6719 Z " fill="#000000"/><text fill="#000000" font-family="sans-serif" font-size="12" lengthAdjust="spacing" textLength="66" x="165" y="555.1543">TradingPair</text><line style="stroke:#A80036;stroke-width:1.5;" x1="137" x2="233" y1="567" y2="567"/><text fill="#000000" font-family="sans-serif" font-size="11" lengthAdjust="spacing" textLength="66" x="142" y="581.2104">security: str</text><text fill="#000000" font-family="sans-serif" font-size="11" lengthAdjust="spacing" textLength="70" x="142" y="594.0151">currency: str</text><text fill="#000000" font-family="sans-serif" font-size="11" lengthAdjust="spacing" textLength="42" x="142" y="606.8198">pair: str</text><line style="stroke:#A80036;stroke-width:1.5;" x1="137" x2="233" y1="613.4141" y2="613.4141"/><!--MD5=[44af1887837e86aa2526a2bdc4cb389a]
class TransactionType--><rect codeLine="42" fill="#FEFECE" filter="url(#f1h3rwig18b4o1)" height="73.6094" id="TransactionType" style="stroke:#A80036;stroke-width:1.5;" width="131" x="269.5" y="541"/><ellipse cx="284.5" cy="557" fill="#EB937F" rx="11" ry="11" style="stroke:#A80036;stroke-width:1.0;"/><path d="M283.2969,557.875 L284.75,557.875 L284.75,557.9844 C284.75,558.3906 284.7813,558.5469 284.8594,558.7031 C285.0156,558.9531 285.2969,559.1094 285.5938,559.1094 C285.8438,559.1094 286.1094,558.9688 286.2656,558.75 C286.3906,558.5938 286.4219,558.4375 286.4219,557.9844 L286.4219,556.0625 C286.4219,555.9063 286.4219,555.8594 286.4063,555.7031 C286.3438,555.2344 286.0313,554.9219 285.5781,554.9219 C285.3281,554.9219 285.0625,555.0625 284.8906,555.2813 C284.7813,555.4531 284.75,555.6094 284.75,556.0625 L284.75,556.1875 L283.2969,556.1875 L283.2969,553.7813 L287.2813,553.7813 L287.2813,554.6406 C287.2813,555.0469 287.3125,555.2188 287.3906,555.375 C287.5625,555.625 287.8438,555.7813 288.125,555.7813 C288.3906,555.7813 288.6563,555.6406 288.8281,555.4219 C288.9375,555.25 288.9688,555.1094 288.9688,554.6406 L288.9688,552.0938 L281.3438,552.0938 C280.9063,552.0938 280.7813,552.1094 280.625,552.2031 C280.375,552.3594 280.2188,552.6563 280.2188,552.9375 C280.2188,553.2188 280.3594,553.4688 280.5781,553.6406 C280.7344,553.75 280.9219,553.7813 281.3438,553.7813 L281.5938,553.7813 L281.5938,560.2969 L281.3438,560.2969 C280.9375,560.2969 280.7813,560.3125 280.625,560.4219 C280.375,560.5938 280.2188,560.8594 280.2188,561.1563 C280.2188,561.4219 280.3594,561.6719 280.5781,561.8281 C280.7188,561.9531 280.9531,562 281.3438,562 L289.3438,562 L289.3438,559.4219 C289.3438,558.9844 289.3125,558.8438 289.2344,558.6875 C289.0625,558.4375 288.7813,558.2813 288.5,558.2813 C288.2344,558.2813 287.9688,558.3906 287.7969,558.6406 C287.6875,558.7969 287.6563,558.9375 287.6563,559.4219 L287.6563,560.2969 L283.2969,560.2969 L283.2969,557.875 Z " fill="#000000"/><text fill="#000000" font-family="sans-serif" font-size="12" lengthAdjust="spacing" textLength="99" x="298.5" y="561.1543">TransactionType</text><line style="stroke:#A80036;stroke-width:1.5;" x1="270.5" x2="399.5" y1="573" y2="573"/><text fill="#000000" font-family="sans-serif" font-size="11" lengthAdjust="spacing" textLength="23" x="275.5" y="587.2104">BUY</text><text fill="#000000" font-family="sans-serif" font-size="11" lengthAdjust="spacing" textLength="27" x="275.5" y="600.0151">SELL</text><line style="stroke:#A80036;stroke-width:1.5;" x1="270.5" x2="399.5" y1="606.6094" y2="606.6094"/><!--MD5=[4aacfc869f18b51607c6dca0928cb216]
class InterestData--><rect codeLine="50" fill="#FEFECE" filter="url(#f1h3rwig18b4o1)" height="112.0234" id="InterestData" style="stroke:#A80036;stroke-width:1.5;" width="151" x="437.5" y="337.5"/><ellipse cx="473.2" cy="353.5" fill="#ADD1B2" rx="11" ry="11" style="stroke:#A80036;stroke-width:1.0;"/><path d="M475.5438,349.1719 C474.6063,348.7344 474.0125,348.5938 473.1375,348.5938 C470.5125,348.5938 468.5125,350.6719 468.5125,353.3906 L468.5125,354.5156 C468.5125,357.0938 470.6219,358.9844 473.5125,358.9844 C474.7313,358.9844 475.8875,358.6875 476.6375,358.1406 C477.2156,357.7344 477.5438,357.2813 477.5438,356.8906 C477.5438,356.4375 477.1531,356.0469 476.6844,356.0469 C476.4656,356.0469 476.2625,356.125 476.075,356.3125 C475.6219,356.7969 475.6219,356.7969 475.4344,356.8906 C475.0125,357.1563 474.325,357.2813 473.5594,357.2813 C471.5125,357.2813 470.2156,356.1875 470.2156,354.4844 L470.2156,353.3906 C470.2156,351.6094 471.4656,350.2969 473.2,350.2969 C473.7781,350.2969 474.3875,350.4531 474.8563,350.7031 C475.3406,350.9844 475.5125,351.2031 475.6063,351.6094 C475.6688,352.0156 475.7,352.1406 475.8406,352.2656 C475.9813,352.4063 476.2156,352.5156 476.4344,352.5156 C476.7,352.5156 476.9656,352.375 477.1375,352.1563 C477.2469,352 477.2781,351.8125 477.2781,351.3906 L477.2781,349.9688 C477.2781,349.5313 477.2625,349.4063 477.1688,349.25 C477.0125,348.9844 476.7313,348.8438 476.4344,348.8438 C476.1375,348.8438 475.9344,348.9375 475.7156,349.25 L475.5438,349.1719 Z " fill="#000000"/><text fill="#000000" font-family="sans-serif" font-size="12" lengthAdjust="spacing" textLength="73" x="491.8" y="357.6543">InterestData</text><line style="stroke:#A80036;stroke-width:1.5;" x1="438.5" x2="587.5" y1="369.5" y2="369.5"/><text fill="#000000" font-family="sans-serif" font-size="11" lengthAdjust="spacing" textLength="107" x="443.5" y="383.7104">type: SavingsType</text><text fill="#000000" font-family="sans-serif" font-size="11" lengthAdjust="spacing" textLength="64" x="443.5" y="396.5151">amount: str</text><text fill="#000000" font-family="sans-serif" font-size="11" lengthAdjust="spacing" textLength="70" x="443.5" y="409.3198">currency: str</text><text fill="#000000" font-family="sans-serif" font-size="11" lengthAdjust="spacing" textLength="139" x="443.5" y="422.1245">data: datetime.datetime</text><text fill="#000000" font-family="sans-serif" font-size="11" lengthAdjust="spacing" textLength="97" x="443.5" y="434.9292">due: InterestDue</text><line style="stroke:#A80036;stroke-width:1.5;" x1="438.5" x2="587.5" y1="441.5234" y2="441.5234"/><!--MD5=[821aa65f00ecc48df650a4022852d6e5]
class SavingsType--><rect codeLine="58" fill="#FEFECE" filter="url(#f1h3rwig18b4o1)" height="73.6094" id="SavingsType" style="stroke:#A80036;stroke-width:1.5;" width="109" x="450.5" y="541"/><ellipse cx="465.5" cy="557" fill="#EB937F" rx="11" ry="11" style="stroke:#A80036;stroke-width:1.0;"/><path d="M464.2969,557.875 L465.75,557.875 L465.75,557.9844 C465.75,558.3906 465.7813,558.5469 465.8594,558.7031 C466.0156,558.9531 466.2969,559.1094 466.5938,559.1094 C466.8438,559.1094 467.1094,558.9688 467.2656,558.75 C467.3906,558.5938 467.4219,558.4375 467.4219,557.9844 L467.4219,556.0625 C467.4219,555.9063 467.4219,555.8594 467.4063,555.7031 C467.3438,555.2344 467.0313,554.9219 466.5781,554.9219 C466.3281,554.9219 466.0625,555.0625 465.8906,555.2813 C465.7813,555.4531 465.75,555.6094 465.75,556.0625 L465.75,556.1875 L464.2969,556.1875 L464.2969,553.7813 L468.2813,553.7813 L468.2813,554.6406 C468.2813,555.0469 468.3125,555.2188 468.3906,555.375 C468.5625,555.625 468.8438,555.7813 469.125,555.7813 C469.3906,555.7813 469.6563,555.6406 469.8281,555.4219 C469.9375,555.25 469.9688,555.1094 469.9688,554.6406 L469.9688,552.0938 L462.3438,552.0938 C461.9063,552.0938 461.7813,552.1094 461.625,552.2031 C461.375,552.3594 461.2188,552.6563 461.2188,552.9375 C461.2188,553.2188 461.3594,553.4688 461.5781,553.6406 C461.7344,553.75 461.9219,553.7813 462.3438,553.7813 L462.5938,553.7813 L462.5938,560.2969 L462.3438,560.2969 C461.9375,560.2969 461.7813,560.3125 461.625,560.4219 C461.375,560.5938 461.2188,560.8594 461.2188,561.1563 C461.2188,561.4219 461.3594,561.6719 461.5781,561.8281 C461.7188,561.9531 461.9531,562 462.3438,562 L470.3438,562 L470.3438,559.4219 C470.3438,558.9844 470.3125,558.8438 470.2344,558.6875 C470.0625,558.4375 469.7813,558.2813 469.5,558.2813 C469.2344,558.2813 468.9688,558.3906 468.7969,558.6406 C468.6875,558.7969 468.6563,558.9375 468.6563,559.4219 L468.6563,560.2969 L464.2969,560.2969 L464.2969,557.875 Z " fill="#000000"/><text fill="#000000" font-family="sans-serif" font-size="12" lengthAdjust="spacing" textLength="77" x="479.5" y="561.1543">SavingsType</text><line style="stroke:#A80036;stroke-width:1.5;" x1="451.5" x2="558.5" y1="573" y2="573"/><text fill="#000000" font-family="sans-serif" font-size="11" lengthAdjust="spacing" textLength="50" x="456.5" y="587.2104">LENDING</text><text fill="#000000" font-family="sans-serif" font-size="11" lengthAdjust="spacing" textLength="50" x="456.5" y="600.0151">STAKING</text><line style="stroke:#A80036;stroke-width:1.5;" x1="451.5" x2="558.5" y1="606.6094" y2="606.6094"/><!--MD5=[c4412bf69481d979e76c238e547cc7c2]
class InterestDue--><rect codeLine="63" fill="#FEFECE" filter="url(#f1h3rwig18b4o1)" height="86.4141" id="InterestDue" style="stroke:#A80036;stroke-width:1.5;" width="102" x="595" y="535"/><ellipse cx="610" cy="551" fill="#EB937F" rx="11" ry="11" style="stroke:#A80036;stroke-width:1.0;"/><path d="M608.7969,551.875 L610.25,551.875 L610.25,551.9844 C610.25,552.3906 610.2813,552.5469 610.3594,552.7031 C610.5156,552.9531 610.7969,553.1094 611.0938,553.1094 C611.3438,553.1094 611.6094,552.9688 611.7656,552.75 C611.8906,552.5938 611.9219,552.4375 611.9219,551.9844 L611.9219,550.0625 C611.9219,549.9063 611.9219,549.8594 611.9063,549.7031 C611.8438,549.2344 611.5313,548.9219 611.0781,548.9219 C610.8281,548.9219 610.5625,549.0625 610.3906,549.2813 C610.2813,549.4531 610.25,549.6094 610.25,550.0625 L610.25,550.1875 L608.7969,550.1875 L608.7969,547.7813 L612.7813,547.7813 L612.7813,548.6406 C612.7813,549.0469 612.8125,549.2188 612.8906,549.375 C613.0625,549.625 613.3438,549.7813 613.625,549.7813 C613.8906,549.7813 614.1563,549.6406 614.3281,549.4219 C614.4375,549.25 614.4688,549.1094 614.4688,548.6406 L614.4688,546.0938 L606.8438,546.0938 C606.4063,546.0938 606.2813,546.1094 606.125,546.2031 C605.875,546.3594 605.7188,546.6563 605.7188,546.9375 C605.7188,547.2188 605.8594,547.4688 606.0781,547.6406 C606.2344,547.75 606.4219,547.7813 606.8438,547.7813 L607.0938,547.7813 L607.0938,554.2969 L606.8438,554.2969 C606.4375,554.2969 606.2813,554.3125 606.125,554.4219 C605.875,554.5938 605.7188,554.8594 605.7188,555.1563 C605.7188,555.4219 605.8594,555.6719 606.0781,555.8281 C606.2188,555.9531 606.4531,556 606.8438,556 L614.8438,556 L614.8438,553.4219 C614.8438,552.9844 614.8125,552.8438 614.7344,552.6875 C614.5625,552.4375 614.2813,552.2813 614,552.2813 C613.7344,552.2813 613.4688,552.3906 613.2969,552.6406 C613.1875,552.7969 613.1563,552.9375 613.1563,553.4219 L613.1563,554.2969 L608.7969,554.2969 L608.7969,551.875 Z " fill="#000000"/><text fill="#000000" font-family="sans-serif" font-size="12" lengthAdjust="spacing" textLength="70" x="624" y="555.1543">InterestDue</text><line style="stroke:#A80036;stroke-width:1.5;" x1="596" x2="696" y1="567" y2="567"/><text fill="#000000" font-family="sans-serif" font-size="11" lengthAdjust="spacing" textLength="36" x="601" y="581.2104">DAILY,</text><text fill="#000000" font-family="sans-serif" font-size="11" lengthAdjust="spacing" textLength="36" x="601" y="594.0151">FIXED,</text><text fill="#000000" font-family="sans-serif" font-size="11" lengthAdjust="spacing" textLength="41" x="601" y="606.8198">ACTIVE</text><line style="stroke:#A80036;stroke-width:1.5;" x1="596" x2="696" y1="613.4141" y2="613.4141"/><!--MD5=[9a53173fd465870767fadac9c8eb4bbd]
reverse link AbstractCryptoExchangeClientModule to ExchangeXYClientModule--><path codeLine="20" d="M640.405,117.569 C675.653,141.251 714.016,167.026 740.733,184.977 " fill="none" id="AbstractCryptoExchangeClientModule-backto-ExchangeXYClientModule" style="stroke:#A80036;stroke-width:1.0;"/><polygon fill="none" points="636.114,123.119,623.417,106.155,643.922,111.499,636.114,123.119" style="stroke:#A80036;stroke-width:1.0;"/><!--MD5=[78614227f400994a3db8569152f876aa]
reverse link AbstractCryptoExchangeClient to ExchangeXYClient--><path codeLine="21" d="M272.474,266.611 C238.528,301.221 196.925,343.638 171.716,369.34 " fill="none" id="AbstractCryptoExchangeClient-backto-ExchangeXYClient" style="stroke:#A80036;stroke-width:1.0;"/><polygon fill="none" points="267.482,261.705,286.484,252.328,277.477,271.508,267.482,261.705" style="stroke:#A80036;stroke-width:1.0;"/><!--MD5=[bc33d6244b8f4587a5a342f7e33f9994]
link AbstractCryptoExchangeClientModule to AbstractCryptoExchangeClient--><path codeLine="22" d="M478.906,106.155 C455.969,121.635 430.479,138.838 407.076,154.633 " fill="none" id="AbstractCryptoExchangeClientModule-to-AbstractCryptoExchangeClient" style="stroke:#A80036;stroke-width:1.0;stroke-dasharray:7.0,7.0;"/><polygon fill="none" points="410.964,160.454,390.47,165.84,403.132,148.849,410.964,160.454" style="stroke:#A80036;stroke-width:1.0;"/><!--MD5=[324c82440d083706c045708dad042324]
link TradeData to TradingPair--><path codeLine="47" d="M264.862,475.078 C249.963,494.092 234.574,513.733 221.329,530.6364 " fill="none" id="TradeData-to-TradingPair" style="stroke:#A80036;stroke-width:1.0;stroke-dasharray:7.0,7.0;"/><polygon fill="#A80036" points="218.009,534.873,226.7085,530.2558,221.0929,530.9373,220.4114,525.3216,218.009,534.873" style="stroke:#A80036;stroke-width:1.0;"/><!--MD5=[93d46a66258a4400e5c2c3d1360a18b4]
link TradeData to TransactionType--><path codeLine="48" d="M331.091,475.078 C331.887,495.847 332.713,517.363 333.398,535.2435 " fill="none" id="TradeData-to-TransactionType" style="stroke:#A80036;stroke-width:1.0;stroke-dasharray:7.0,7.0;"/><polygon fill="#A80036" points="333.607,540.6711,337.259,531.5244,333.4153,535.6748,329.2649,531.8311,333.607,540.6711" style="stroke:#A80036;stroke-width:1.0;"/><!--MD5=[75d03f2631803b2e026a7725e4de63f4]
link InterestData to SavingsType--><path codeLine="69" d="M510.578,449.751 C509.367,477.372 507.927,510.232 506.813,535.6413 " fill="none" id="InterestData-to-SavingsType" style="stroke:#A80036;stroke-width:1.0;stroke-dasharray:7.0,7.0;"/><polygon fill="#A80036" points="506.58,540.9456,510.9703,532.1294,506.799,535.9504,502.978,531.7791,506.58,540.9456" style="stroke:#A80036;stroke-width:1.0;"/><!--MD5=[5e756ed6f28c480a7417b73732f49f83]
link InterestData to InterestDue--><path codeLine="70" d="M553.265,449.751 C572.129,475.636 594.347,506.122 612.306,530.7652 " fill="none" id="InterestData-to-InterestDue" style="stroke:#A80036;stroke-width:1.0;stroke-dasharray:7.0,7.0;"/><polygon fill="#A80036" points="615.378,534.9814,613.3108,525.3519,612.4335,530.9403,606.8451,530.063,615.378,534.9814" style="stroke:#A80036;stroke-width:1.0;"/><!--MD5=[e4281c5743f91236ef9b22e9998c6be5]
link AbstractCryptoExchangeClient to TradeData--><path codeLine="72" d="M328,252.328 C328,268.498 328,287.577 328,306.367 " fill="none" id="AbstractCryptoExchangeClient-to-TradeData" style="stroke:#A80036;stroke-width:1.0;stroke-dasharray:7.0,7.0;"/><polygon fill="#A80036" points="328,311.656,332,302.656,328,306.656,324,302.656,328,311.656" style="stroke:#A80036;stroke-width:1.0;"/><!--MD5=[b0d23fc2b6cfaaf0c1f5cfe776853d2a]
link AbstractCryptoExchangeClient to InterestData--><path codeLine="73" d="M370.908,252.328 C395.425,276.513 426.54,307.209 453.401,333.706 " fill="none" id="AbstractCryptoExchangeClient-to-InterestData" style="stroke:#A80036;stroke-width:1.0;stroke-dasharray:7.0,7.0;"/><polygon fill="#A80036" points="456.992,337.249,453.3934,328.0811,453.4323,333.7378,447.7755,333.7767,456.992,337.249" style="stroke:#A80036;stroke-width:1.0;"/><!--MD5=[bd2fda5b234370940c7549287a6128e5]
@startuml
abstract class "AbstractCryptoExchangeClientModule" {
  {abstract} can_connect() -> bool
  {abstract} get_exchange_name() -> str
  {abstract} get_config_entries() -> List[str]
  {abstract} get_exchange_client() -> AbstractCryptoExchange
}

abstract class "AbstractCryptoExchangeClient" {
  {abstract} get_trades(from_timestamp: int, to_timestamp: int, list_of_trading_pairs: List[TradingPair]) -> List[TradeData]
  {abstract} get_savings_interests(self, from_timestamp: int, to_timestamp: int, list_of_assets: List[str]) -> List[InterestData]
  {abstract} get_invalid_trading_pairs(self) -> List[str]
}

class "ExchangeXYClientModule" {
}

class "ExchangeXYClient" {
}

"AbstractCryptoExchangeClientModule" <|- - "ExchangeXYClientModule"
"AbstractCryptoExchangeClient" <|- - "ExchangeXYClient"
"AbstractCryptoExchangeClientModule" ..|> "AbstractCryptoExchangeClient"

class TradeData {
  trading_platform: str
  commission_amount: str
  commission_asset: str
  currency_amount: str
  security_amount: str
  trading_pair: TradingPair
  type: TransactionType
  id: int
  time: int
}

class TradingPair {
  security: str
  currency: str
  pair: str
}

enum TransactionType {
  BUY
  SELL
}

TradeData ..> TradingPair
TradeData ..> TransactionType

class InterestData {
  type: SavingsType
  amount: str
  currency: str
  data: datetime.datetime
  due: InterestDue
}

enum SavingsType {
  LENDING
  STAKING
}

enum InterestDue {
  DAILY,
  FIXED,
  ACTIVE
}

InterestData ..> SavingsType
InterestData ..> InterestDue

"AbstractCryptoExchangeClient" ..> TradeData
"AbstractCryptoExchangeClient" ..> InterestData
@enduml

PlantUML version 1.2021.5beta3(Unknown compile time)
(GPL source distribution)
Java Runtime: Java(TM) SE Runtime Environment
JVM: Java HotSpot(TM) 64-Bit Server VM
Default Encoding: UTF-8
Language: en
Country: US
--></g></svg>